<?xml version="1.0" encoding="UTF-8" standalone="no"?>
<!-- Created with Inkscape (http://www.inkscape.org/) -->

<svg
   xmlns:dc="http://purl.org/dc/elements/1.1/"
   xmlns:cc="http://creativecommons.org/ns#"
   xmlns:rdf="http://www.w3.org/1999/02/22-rdf-syntax-ns#"
   xmlns:svg="http://www.w3.org/2000/svg"
   xmlns="http://www.w3.org/2000/svg"
   xmlns:sodipodi="http://sodipodi.sourceforge.net/DTD/sodipodi-0.dtd"
   xmlns:inkscape="http://www.inkscape.org/namespaces/inkscape"
   width="69.846397"
   height="21.333332"
   viewBox="0 0 18.480193 5.644444"
   version="1.1"
   id="svg8"
   inkscape:version="0.92.1 r15371"
   sodipodi:docname="arr.svg">
  <defs
     id="defs2">
    <clipPath
       id="clipPath4501"
       clipPathUnits="userSpaceOnUse">
      <path
         inkscape:connector-curvature="0"
         id="path4499"
         d="M 0,61.263 H 243.272 V 0 H 0 Z" />
    </clipPath>
    <clipPath
       id="clipPath4617"
       clipPathUnits="userSpaceOnUse">
      <path
         inkscape:connector-curvature="0"
         id="path4615"
         d="M 0,409.603 H 409.602 V 0 H 0 Z" />
    </clipPath>
    <clipPath
       id="clipPath4661"
       clipPathUnits="userSpaceOnUse">
      <path
         inkscape:connector-curvature="0"
         id="path4659"
         d="M 0,24.5 H 186.078 V 0 H 0 Z" />
    </clipPath>
    <clipPath
       id="clipPath4714"
       clipPathUnits="userSpaceOnUse">
      <path
         inkscape:connector-curvature="0"
         id="path4712"
         d="M 0,12 H 12 V 0 H 0 Z" />
    </clipPath>
    <clipPath
       id="clipPath4766"
       clipPathUnits="userSpaceOnUse">
      <path
         inkscape:connector-curvature="0"
         id="path4764"
         d="M 0,100.113 H 104.286 V 0 H 0 Z" />
    </clipPath>
    <clipPath
       id="clipPath4818"
       clipPathUnits="userSpaceOnUse">
      <path
         inkscape:connector-curvature="0"
         id="path4816"
         d="M 0,0 H 26 V 23.999 H 0 Z" />
    </clipPath>
    <clipPath
       id="clipPath4830"
       clipPathUnits="userSpaceOnUse">
      <path
         inkscape:connector-curvature="0"
         id="path4828"
         d="M 0,23.999 H 26 V 0 H 0 Z" />
    </clipPath>
    <clipPath
       id="clipPath5038"
       clipPathUnits="userSpaceOnUse">
      <path
         inkscape:connector-curvature="0"
         id="path5036"
         d="M 0,512 H 512 V 0 H 0 Z" />
    </clipPath>
    <clipPath
       id="clipPath5091"
       clipPathUnits="userSpaceOnUse">
      <path
         inkscape:connector-curvature="0"
         id="path5089"
         d="M 0,25.492 H 22.278 V 0 H 0 Z" />
    </clipPath>
    <clipPath
       id="clipPath5132"
       clipPathUnits="userSpaceOnUse">
      <path
         inkscape:connector-curvature="0"
         id="path5130"
         d="M 0,0 H 22.001 V 24 H 0 Z" />
    </clipPath>
    <clipPath
       id="clipPath5177"
       clipPathUnits="userSpaceOnUse">
      <path
         inkscape:connector-curvature="0"
         id="path5175"
         d="M 0,0 H 281.001 V 370.999 H 0 Z" />
    </clipPath>
    <clipPath
       id="clipPath5189"
       clipPathUnits="userSpaceOnUse">
      <path
         inkscape:connector-curvature="0"
         id="path5187"
         d="M 0,371 H 281 V 0 H 0 Z" />
    </clipPath>
    <clipPath
       id="clipPath5177-8"
       clipPathUnits="userSpaceOnUse">
      <path
         inkscape:connector-curvature="0"
         id="path5175-9"
         d="M 0,0 H 281.001 V 370.999 H 0 Z" />
    </clipPath>
    <clipPath
       id="clipPath5189-0"
       clipPathUnits="userSpaceOnUse">
      <path
         inkscape:connector-curvature="0"
         id="path5187-6"
         d="M 0,371 H 281 V 0 H 0 Z" />
    </clipPath>
    <clipPath
       id="clipPath5404"
       clipPathUnits="userSpaceOnUse">
      <path
         inkscape:connector-curvature="0"
         id="path5402"
         d="M 0,512 H 512 V 0 H 0 Z" />
    </clipPath>
    <clipPath
       id="clipPath5573"
       clipPathUnits="userSpaceOnUse">
      <path
         inkscape:connector-curvature="0"
         id="path5571"
         d="M 0,233.425 H 228.754 V 0 H 0 Z" />
    </clipPath>
    <clipPath
       id="clipPath5665"
       clipPathUnits="userSpaceOnUse">
      <path
         inkscape:connector-curvature="0"
         id="path5663"
         d="M 0,0 H 51 V 40.96 H 0 Z" />
    </clipPath>
    <clipPath
       id="clipPath5718"
       clipPathUnits="userSpaceOnUse">
      <path
         inkscape:connector-curvature="0"
         id="path5716"
         d="M 0,16 H 52.385 V 0 H 0 Z" />
    </clipPath>
  </defs>
  <sodipodi:namedview
     id="base"
     pagecolor="#ffffff"
     bordercolor="#666666"
     borderopacity="1.0"
     inkscape:pageopacity="0.0"
     inkscape:pageshadow="2"
     inkscape:zoom="1.4"
     inkscape:cx="21.678692"
     inkscape:cy="11.337061"
     inkscape:document-units="mm"
     inkscape:current-layer="layer1"
     showgrid="false"
     fit-margin-top="0"
     fit-margin-left="0"
     fit-margin-right="0"
     fit-margin-bottom="0"
     inkscape:window-width="1366"
     inkscape:window-height="721"
     inkscape:window-x="-4"
     inkscape:window-y="-4"
     inkscape:window-maximized="1"
     units="px" />
  <metadata
     id="metadata5">
    <rdf:RDF>
      <cc:Work
         rdf:about="">
        <dc:format>image/svg+xml</dc:format>
        <dc:type
           rdf:resource="http://purl.org/dc/dcmitype/StillImage" />
        <dc:title></dc:title>
      </cc:Work>
    </rdf:RDF>
  </metadata>
  <g
     inkscape:label="Layer 1"
     inkscape:groupmode="layer"
     id="layer1"
     transform="translate(49.792046,-159.26952)">
    <g
       transform="matrix(-0.35277777,0,0,-0.35277777,-31.311853,164.91396)"
       inkscape:label="Vector Smart Object"
       id="g5710">
      <g
         id="g5712">
        <g
           clip-path="url(#clipPath5718)"
           id="g5714">
          <g
             transform="translate(8.2983,7.1992)"
             id="g5720">
            <path
               inkscape:connector-curvature="0"
               id="path5722"
               style="fill:#000000;fill-opacity:1;fill-rule:nonzero;stroke:none"
               d="m 0,0 h -1.598 c -0.441,0 -0.8,0.36 -0.8,0.801 0,0.442 0.359,0.801 0.8,0.801 H 0 C 0.441,1.602 0.801,1.243 0.801,0.801 0.801,0.36 0.445,0 0,0 M 4.801,0 H 3.203 C 2.762,0 2.402,0.36 2.402,0.801 c 0,0.442 0.36,0.801 0.801,0.801 H 4.801 C 5.242,1.602 5.602,1.243 5.602,0.801 5.602,0.36 5.242,0 4.801,0 M 9.602,0 H 8 C 7.559,0 7.203,0.36 7.203,0.801 7.203,1.243 7.559,1.602 8,1.602 h 1.602 c 0.441,0 0.801,-0.359 0.801,-0.801 C 10.403,0.36 10.043,0 9.602,0 m 4.801,0 H 12.801 C 12.36,0 12,0.36 12,0.801 c 0,0.442 0.36,0.801 0.801,0.801 h 1.602 c 0.441,0 0.801,-0.359 0.801,-0.801 C 15.204,0.36 14.844,0 14.403,0 m 4.801,0 h -1.602 c -0.441,0 -0.801,0.36 -0.801,0.801 0,0.442 0.36,0.801 0.801,0.801 h 1.602 C 19.645,1.602 20,1.243 20,0.801 20,0.36 19.645,0 19.204,0" />
          </g>
          <g
             transform="translate(32.3848,7.1992)"
             id="g5724">
            <path
               inkscape:connector-curvature="0"
               id="path5726"
               style="fill:#000000;fill-opacity:1;fill-rule:nonzero;stroke:none"
               d="m 0,0 h -1.598 c -0.441,0 -0.8,0.36 -0.8,0.801 0,0.442 0.359,0.801 0.8,0.801 H 0 C 0.441,1.602 0.801,1.243 0.801,0.801 0.801,0.36 0.445,0 0,0 M 4.801,0 H 3.203 C 2.762,0 2.402,0.36 2.402,0.801 c 0,0.442 0.36,0.801 0.801,0.801 H 4.801 C 5.242,1.602 5.602,1.243 5.602,0.801 5.602,0.36 5.242,0 4.801,0 M 9.602,0 H 8 C 7.559,0 7.203,0.36 7.203,0.801 7.203,1.243 7.559,1.602 8,1.602 h 1.602 c 0.441,0 0.801,-0.359 0.801,-0.801 C 10.403,0.36 10.043,0 9.602,0 m 4.801,0 H 12.801 C 12.36,0 12,0.36 12,0.801 c 0,0.442 0.36,0.801 0.801,0.801 h 1.602 c 0.441,0 0.801,-0.359 0.801,-0.801 C 15.204,0.36 14.844,0 14.403,0 m 4.801,0 h -1.602 c -0.441,0 -0.801,0.36 -0.801,0.801 0,0.442 0.36,0.801 0.801,0.801 h 1.602 C 19.645,1.602 20,1.243 20,0.801 20,0.36 19.645,0 19.204,0" />
          </g>
          <g
             transform="translate(0.8008,7.1992)"
             id="g5728">
            <path
               inkscape:connector-curvature="0"
               id="path5730"
               style="fill:#000000;fill-opacity:1;fill-rule:nonzero;stroke:none"
               d="m 0,0 c -0.207,0 -0.41,0.079 -0.567,0.235 -0.312,0.312 -0.312,0.82 0,1.133 l 7.2,7.199 c 0.312,0.312 0.82,0.312 1.132,0 0.313,-0.313 0.313,-0.82 0,-1.133 L 0.566,0.235 C 0.41,0.079 0.203,0 0,0" />
          </g>
          <g
             transform="translate(7.9995)"
             id="g5732">
            <path
               inkscape:connector-curvature="0"
               id="path5734"
               style="fill:#000000;fill-opacity:1;fill-rule:nonzero;stroke:none"
               d="m 0,0 c -0.203,0 -0.41,0.078 -0.566,0.235 l -7.2,7.199 c -0.312,0.312 -0.312,0.82 0,1.133 0.313,0.312 0.821,0.312 1.133,0 l 7.199,-7.2 C 0.879,1.051 0.879,0.547 0.566,0.235 0.41,0.078 0.203,0 0,0" />
          </g>
        </g>
      </g>
    </g>
  </g>
</svg>
