<?xml version="1.0" encoding="UTF-8" standalone="no"?>
<!-- Created with Inkscape (http://www.inkscape.org/) -->

<svg
   xmlns:dc="http://purl.org/dc/elements/1.1/"
   xmlns:cc="http://creativecommons.org/ns#"
   xmlns:rdf="http://www.w3.org/1999/02/22-rdf-syntax-ns#"
   xmlns:svg="http://www.w3.org/2000/svg"
   xmlns="http://www.w3.org/2000/svg"
   xmlns:sodipodi="http://sodipodi.sourceforge.net/DTD/sodipodi-0.dtd"
   xmlns:inkscape="http://www.inkscape.org/namespaces/inkscape"
   version="1.1"
   id="svg2"
   xml:space="preserve"
   width="96.000664"
   height="75.425735"
   viewBox="0 0 96.000664 75.425735"
   sodipodi:docname="email.svg"
   inkscape:version="0.92.1 r15371"><metadata
     id="metadata8"><rdf:RDF><cc:Work
         rdf:about=""><dc:format>image/svg+xml</dc:format><dc:type
           rdf:resource="http://purl.org/dc/dcmitype/StillImage" /><dc:title></dc:title></cc:Work></rdf:RDF></metadata><defs
     id="defs6"><clipPath
       clipPathUnits="userSpaceOnUse"
       id="clipPath18"><path
         d="M 0,56.569 H 72 V 0 H 0 Z"
         id="path16"
         inkscape:connector-curvature="0" /></clipPath></defs><sodipodi:namedview
     pagecolor="#ffffff"
     bordercolor="#666666"
     borderopacity="1"
     objecttolerance="10"
     gridtolerance="10"
     guidetolerance="10"
     inkscape:pageopacity="0"
     inkscape:pageshadow="2"
     inkscape:window-width="741"
     inkscape:window-height="480"
     id="namedview4"
     showgrid="false"
     inkscape:zoom="3.1289055"
     inkscape:cx="48.000332"
     inkscape:cy="37.712868"
     inkscape:window-x="68"
     inkscape:window-y="187"
     inkscape:window-maximized="0"
     inkscape:current-layer="g10" /><g
     id="g10"
     inkscape:groupmode="layer"
     inkscape:label="Vector Smart Object4"
     transform="matrix(1.3333333,0,0,-1.3333333,0,75.425733)"><g
       id="g12"
       style="fill:#00aeef;fill-opacity:1"><g
         id="g14"
         clip-path="url(#clipPath18)"
         style="fill:#00aeef;fill-opacity:1"><g
           id="g20"
           transform="translate(65.5708)"
           style="fill:#00aeef;fill-opacity:1"><path
             d="m 0,0 c 1.617,0 3.02,0.535 4.211,1.59 l -20.395,20.398 c -0.492,-0.351 -0.964,-0.691 -1.414,-1.015 -1.527,-1.125 -2.765,-2.004 -3.715,-2.633 -0.953,-0.629 -2.218,-1.27 -3.796,-1.926 -1.582,-0.656 -3.055,-0.984 -4.423,-0.984 h -0.077 c -1.368,0 -2.841,0.328 -4.423,0.984 -1.582,0.656 -2.847,1.297 -3.797,1.926 -0.949,0.629 -2.187,1.508 -3.714,2.633 -0.426,0.312 -0.898,0.656 -1.411,1.019 L -63.355,1.59 C -62.165,0.535 -60.762,0 -59.141,0 Z"
             style="fill:#00aeef;fill-opacity:1;fill-rule:nonzero;stroke:none"
             id="path22"
             inkscape:connector-curvature="0" /></g><g
           id="g24"
           transform="translate(4.0591,34.8315)"
           style="fill:#00aeef;fill-opacity:1"><path
             d="m 0,0 c -1.528,1.019 -2.879,2.184 -4.059,3.496 v -31.035 l 17.98,17.981 C 10.324,-7.046 5.687,-3.863 0,0"
             style="fill:#00aeef;fill-opacity:1;fill-rule:nonzero;stroke:none"
             id="path26"
             inkscape:connector-curvature="0" /></g><g
           id="g28"
           transform="translate(67.981,34.8315)"
           style="fill:#00aeef;fill-opacity:1"><path
             d="M 0,0 C -5.473,-3.703 -10.121,-6.891 -13.953,-9.566 L 4.02,-27.539 V 3.496 C 2.867,2.211 1.527,1.047 0,0"
             style="fill:#00aeef;fill-opacity:1;fill-rule:nonzero;stroke:none"
             id="path30"
             inkscape:connector-curvature="0" /></g><g
           id="g32"
           transform="translate(65.5708,56.5693)"
           style="fill:#00aeef;fill-opacity:1"><path
             d="m 0,0 h -59.141 c -2.063,0 -3.652,-0.695 -4.762,-2.09 -1.113,-1.39 -1.668,-3.132 -1.668,-5.222 0,-1.688 0.738,-3.516 2.212,-5.485 1.472,-1.968 3.038,-3.515 4.698,-4.64 0.911,-0.641 3.657,-2.551 8.239,-5.727 2.472,-1.711 4.621,-3.207 6.472,-4.496 1.575,-1.098 2.934,-2.046 4.055,-2.835 0.129,-0.09 0.329,-0.234 0.598,-0.426 0.289,-0.207 0.656,-0.473 1.109,-0.801 0.872,-0.629 1.594,-1.136 2.168,-1.523 0.579,-0.393 1.273,-0.824 2.09,-1.309 0.816,-0.48 1.59,-0.843 2.312,-1.084 0.723,-0.24 1.391,-0.361 2.009,-0.361 h 0.077 c 0.618,0 1.29,0.121 2.012,0.361 0.723,0.241 1.493,0.604 2.309,1.084 0.816,0.485 1.512,0.916 2.09,1.309 0.578,0.387 1.301,0.894 2.172,1.523 0.449,0.328 0.816,0.594 1.105,0.801 0.27,0.192 0.473,0.336 0.602,0.426 0.871,0.607 2.234,1.555 4.066,2.827 3.328,2.313 8.235,5.719 14.735,10.231 1.957,1.367 3.589,3.015 4.902,4.941 1.312,1.93 1.969,3.953 1.969,6.067 0,1.769 -0.637,3.281 -1.91,4.542 C 3.25,-0.629 1.742,0 0,0"
             style="fill:#00aeef;fill-opacity:1;fill-rule:nonzero;stroke:none"
             id="path34"
             inkscape:connector-curvature="0" /></g></g></g></g></svg>