<?xml version="1.0" encoding="UTF-8" standalone="no"?>
<!-- Created with Inkscape (http://www.inkscape.org/) -->

<svg
   xmlns:dc="http://purl.org/dc/elements/1.1/"
   xmlns:cc="http://creativecommons.org/ns#"
   xmlns:rdf="http://www.w3.org/1999/02/22-rdf-syntax-ns#"
   xmlns:svg="http://www.w3.org/2000/svg"
   xmlns="http://www.w3.org/2000/svg"
   xmlns:sodipodi="http://sodipodi.sourceforge.net/DTD/sodipodi-0.dtd"
   xmlns:inkscape="http://www.inkscape.org/namespaces/inkscape"
   width="161"
   height="161"
   viewBox="0 0 42.597917 42.597916"
   version="1.1"
   id="svg8"
   inkscape:version="0.92.1 r15371"
   sodipodi:docname="ico2.svg">
  <defs
     id="defs2">
    <clipPath
       id="clipPath4501"
       clipPathUnits="userSpaceOnUse">
      <path
         inkscape:connector-curvature="0"
         id="path4499"
         d="M 0,61.263 H 243.272 V 0 H 0 Z" />
    </clipPath>
    <clipPath
       id="clipPath4617"
       clipPathUnits="userSpaceOnUse">
      <path
         inkscape:connector-curvature="0"
         id="path4615"
         d="M 0,409.603 H 409.602 V 0 H 0 Z" />
    </clipPath>
    <clipPath
       id="clipPath4661"
       clipPathUnits="userSpaceOnUse">
      <path
         inkscape:connector-curvature="0"
         id="path4659"
         d="M 0,24.5 H 186.078 V 0 H 0 Z" />
    </clipPath>
    <clipPath
       id="clipPath4714"
       clipPathUnits="userSpaceOnUse">
      <path
         inkscape:connector-curvature="0"
         id="path4712"
         d="M 0,12 H 12 V 0 H 0 Z" />
    </clipPath>
    <clipPath
       id="clipPath4766"
       clipPathUnits="userSpaceOnUse">
      <path
         inkscape:connector-curvature="0"
         id="path4764"
         d="M 0,100.113 H 104.286 V 0 H 0 Z" />
    </clipPath>
    <clipPath
       id="clipPath4818"
       clipPathUnits="userSpaceOnUse">
      <path
         inkscape:connector-curvature="0"
         id="path4816"
         d="M 0,0 H 26 V 23.999 H 0 Z" />
    </clipPath>
    <clipPath
       id="clipPath4830"
       clipPathUnits="userSpaceOnUse">
      <path
         inkscape:connector-curvature="0"
         id="path4828"
         d="M 0,23.999 H 26 V 0 H 0 Z" />
    </clipPath>
  </defs>
  <sodipodi:namedview
     id="base"
     pagecolor="#ffffff"
     bordercolor="#666666"
     borderopacity="1.0"
     inkscape:pageopacity="0.0"
     inkscape:pageshadow="2"
     inkscape:zoom="1.4"
     inkscape:cx="21.184413"
     inkscape:cy="91.405173"
     inkscape:document-units="mm"
     inkscape:current-layer="layer1"
     showgrid="false"
     fit-margin-top="0"
     fit-margin-left="0"
     fit-margin-right="0"
     fit-margin-bottom="0"
     inkscape:window-width="1366"
     inkscape:window-height="721"
     inkscape:window-x="-4"
     inkscape:window-y="-4"
     inkscape:window-maximized="1"
     units="px" />
  <metadata
     id="metadata5">
    <rdf:RDF>
      <cc:Work
         rdf:about="">
        <dc:format>image/svg+xml</dc:format>
        <dc:type
           rdf:resource="http://purl.org/dc/dcmitype/StillImage" />
        <dc:title></dc:title>
      </cc:Work>
    </rdf:RDF>
  </metadata>
  <g
     inkscape:label="Layer 1"
     inkscape:groupmode="layer"
     id="layer1"
     transform="translate(29.742874,-130.42075)">
    <circle
       style="fill:none;fill-opacity:1;stroke:#ffffff;stroke-width:0.79375;stroke-opacity:1;stroke-miterlimit:4;stroke-dasharray:none"
       id="path4800"
       cx="-8.4439154"
       cy="151.71971"
       r="20.788691" />
    <g
       transform="matrix(0.79058225,0,0,-0.79058225,-18.366409,161.50863)"
       inkscape:label="Vector Smart Object"
       id="g4810"
       style="fill:#ffffff;fill-opacity:1">
      <g
         id="g4812"
         style="fill:#ffffff;fill-opacity:1">
        <g
           clip-path="url(#clipPath4818)"
           id="g4814"
           style="fill:#ffffff;fill-opacity:1">
          <g
             transform="translate(23.2661,13.4321)"
             id="g4820"
             style="fill:#ffffff;fill-opacity:1">
            <path
               inkscape:connector-curvature="0"
               id="path4822"
               style="fill:#ffffff;fill-opacity:1;fill-rule:nonzero;stroke:none"
               d="M 0,0 C -0.039,-0.121 -0.129,-0.273 -0.438,-0.175 -0.828,-0.046 -1,0.161 -0.949,0.454 -0.898,0.715 -0.668,1.008 -0.355,1.219 -0.02,0.825 0.094,0.286 0,0 m -17.61,-0.796 c -0.422,0 -0.765,0.339 -0.765,0.765 0,0.422 0.343,0.766 0.765,0.766 0.426,0 0.77,-0.344 0.77,-0.766 0,-0.426 -0.344,-0.765 -0.77,-0.765 M 1.73,1.118 C 1.531,1.575 1.105,1.875 0.617,1.907 0.301,1.93 -0.012,1.848 -0.293,1.715 -0.449,1.84 -0.629,1.946 -0.836,2.012 -1.32,2.172 -2.383,2.032 -2.852,1.536 -3.828,2.868 -5.281,3.942 -7.008,4.637 -7.328,4.114 -7.813,3.708 -8.395,3.489 -8.281,3.395 -8.219,3.329 -8.211,3.321 -8.066,3.153 -8.086,2.899 -8.25,2.754 -8.328,2.688 -8.418,2.657 -8.512,2.657 c -0.113,0 -0.222,0.047 -0.304,0.136 -0.02,0.024 -0.641,0.68 -2.27,0.68 -1.625,0 -2.246,-0.656 -2.274,-0.683 -0.148,-0.161 -0.398,-0.176 -0.562,-0.032 -0.164,0.149 -0.18,0.395 -0.039,0.559 0.035,0.039 0.761,0.824 2.492,0.933 -0.305,0.344 -0.527,0.762 -0.633,1.223 -1.137,-0.055 -2.226,-0.258 -3.23,-0.594 -0.973,1.262 -3.543,2.422 -4.875,2.704 0,-2.758 1.211,-3.375 1.164,-4.864 -1.016,-0.945 -1.758,-2.078 -2.137,-3.328 l -1.438,0.211 c -0.433,0.063 -0.718,-0.238 -0.632,-0.668 l 0.574,-2.866 c 0.086,-0.436 0.515,-0.785 0.957,-0.785 h 0.644 c 0.508,-1.418 1.497,-2.668 2.809,-3.643 v -4.307 c 2.18,0 3.949,-0.062 3.949,1.649 v 0.851 c 0.903,-0.21 1.852,-0.333 2.844,-0.333 1.285,0 2.512,0.205 3.641,0.554 v -1.068 c 0,-1.715 1.769,-1.653 3.949,-1.653 V -7.7 c 1.5,1.405 2.41,3.215 2.41,5.2 0,1.336 -0.414,2.59 -1.136,3.696 0.269,0.414 1.257,0.566 1.648,0.437 C -0.852,1.598 -0.75,1.547 -0.664,1.489 -1.02,1.219 -1.277,0.86 -1.34,0.524 -1.387,0.29 -1.398,-0.289 -0.559,-0.558 c 0.106,-0.031 0.207,-0.051 0.301,-0.051 0.305,0 0.535,0.172 0.637,0.484 C 0.512,0.282 0.383,0.918 0.004,1.407 0.195,1.481 0.395,1.52 0.594,1.508 0.996,1.481 1.254,1.208 1.363,0.958 1.484,0.676 1.453,0.387 1.281,0.176 1.211,0.09 1.223,-0.035 1.309,-0.105 1.391,-0.175 1.52,-0.164 1.59,-0.078 1.855,0.247 1.91,0.704 1.73,1.118" />
          </g>
        </g>
      </g>
      <g
         id="g4824"
         style="fill:#ffffff;fill-opacity:1">
        <g
           clip-path="url(#clipPath4830)"
           id="g4826"
           style="fill:#ffffff;fill-opacity:1">
          <g
             transform="translate(15.8794,19.5264)"
             id="g4832"
             style="fill:#ffffff;fill-opacity:1">
            <path
               inkscape:connector-curvature="0"
               id="path4834"
               style="fill:#ffffff;fill-opacity:1;fill-rule:nonzero;stroke:none"
               d="m 0,0 c 0,-1.101 -0.895,-1.996 -1.996,-1.996 -1.102,0 -1.992,0.895 -1.992,1.996 0,1.098 0.89,1.992 1.992,1.992 C -0.895,1.992 0,1.098 0,0" />
          </g>
          <g
             transform="translate(12.582,22.5073)"
             id="g4836"
             style="fill:#ffffff;fill-opacity:1">
            <path
               inkscape:connector-curvature="0"
               id="path4838"
               style="fill:#ffffff;fill-opacity:1;fill-rule:nonzero;stroke:none"
               d="m 0,0 c 0,-0.825 -0.668,-1.489 -1.492,-1.489 -0.824,0 -1.492,0.664 -1.492,1.489 0,0.824 0.668,1.492 1.492,1.492 C -0.668,1.492 0,0.824 0,0" />
          </g>
          <g
             transform="translate(17.7817,21.6592)"
             id="g4840"
             style="fill:#ffffff;fill-opacity:1">
            <path
               inkscape:connector-curvature="0"
               id="path4842"
               style="fill:#ffffff;fill-opacity:1;fill-rule:nonzero;stroke:none"
               d="m 0,0 c 0,-0.574 -0.465,-1.043 -1.043,-1.043 -0.574,0 -1.039,0.469 -1.039,1.043 0,0.574 0.465,1.039 1.039,1.039 C -0.465,1.039 0,0.574 0,0" />
          </g>
        </g>
      </g>
    </g>
  </g>
</svg>
