<?xml version="1.0" encoding="UTF-8" standalone="no"?>
<!-- Created with Inkscape (http://www.inkscape.org/) -->

<svg
   xmlns:dc="http://purl.org/dc/elements/1.1/"
   xmlns:cc="http://creativecommons.org/ns#"
   xmlns:rdf="http://www.w3.org/1999/02/22-rdf-syntax-ns#"
   xmlns:svg="http://www.w3.org/2000/svg"
   xmlns="http://www.w3.org/2000/svg"
   xmlns:sodipodi="http://sodipodi.sourceforge.net/DTD/sodipodi-0.dtd"
   xmlns:inkscape="http://www.inkscape.org/namespaces/inkscape"
   width="161"
   height="161"
   viewBox="0 0 42.597917 42.597916"
   version="1.1"
   id="svg8"
   inkscape:version="0.92.1 r15371"
   sodipodi:docname="ico4.svg">
  <defs
     id="defs2">
    <clipPath
       id="clipPath4501"
       clipPathUnits="userSpaceOnUse">
      <path
         inkscape:connector-curvature="0"
         id="path4499"
         d="M 0,61.263 H 243.272 V 0 H 0 Z" />
    </clipPath>
    <clipPath
       id="clipPath4617"
       clipPathUnits="userSpaceOnUse">
      <path
         inkscape:connector-curvature="0"
         id="path4615"
         d="M 0,409.603 H 409.602 V 0 H 0 Z" />
    </clipPath>
    <clipPath
       id="clipPath4661"
       clipPathUnits="userSpaceOnUse">
      <path
         inkscape:connector-curvature="0"
         id="path4659"
         d="M 0,24.5 H 186.078 V 0 H 0 Z" />
    </clipPath>
    <clipPath
       id="clipPath4714"
       clipPathUnits="userSpaceOnUse">
      <path
         inkscape:connector-curvature="0"
         id="path4712"
         d="M 0,12 H 12 V 0 H 0 Z" />
    </clipPath>
    <clipPath
       id="clipPath4766"
       clipPathUnits="userSpaceOnUse">
      <path
         inkscape:connector-curvature="0"
         id="path4764"
         d="M 0,100.113 H 104.286 V 0 H 0 Z" />
    </clipPath>
    <clipPath
       id="clipPath4818"
       clipPathUnits="userSpaceOnUse">
      <path
         inkscape:connector-curvature="0"
         id="path4816"
         d="M 0,0 H 26 V 23.999 H 0 Z" />
    </clipPath>
    <clipPath
       id="clipPath4830"
       clipPathUnits="userSpaceOnUse">
      <path
         inkscape:connector-curvature="0"
         id="path4828"
         d="M 0,23.999 H 26 V 0 H 0 Z" />
    </clipPath>
    <clipPath
       id="clipPath5038"
       clipPathUnits="userSpaceOnUse">
      <path
         inkscape:connector-curvature="0"
         id="path5036"
         d="M 0,512 H 512 V 0 H 0 Z" />
    </clipPath>
  </defs>
  <sodipodi:namedview
     id="base"
     pagecolor="#ffffff"
     bordercolor="#666666"
     borderopacity="1.0"
     inkscape:pageopacity="0.0"
     inkscape:pageshadow="2"
     inkscape:zoom="1.979899"
     inkscape:cx="34.585193"
     inkscape:cy="71.619235"
     inkscape:document-units="mm"
     inkscape:current-layer="layer1"
     showgrid="false"
     fit-margin-top="0"
     fit-margin-left="0"
     fit-margin-right="0"
     fit-margin-bottom="0"
     inkscape:window-width="1366"
     inkscape:window-height="721"
     inkscape:window-x="-4"
     inkscape:window-y="-4"
     inkscape:window-maximized="1"
     units="px" />
  <metadata
     id="metadata5">
    <rdf:RDF>
      <cc:Work
         rdf:about="">
        <dc:format>image/svg+xml</dc:format>
        <dc:type
           rdf:resource="http://purl.org/dc/dcmitype/StillImage" />
        <dc:title></dc:title>
      </cc:Work>
    </rdf:RDF>
  </metadata>
  <g
     inkscape:label="Layer 1"
     inkscape:groupmode="layer"
     id="layer1"
     transform="translate(29.742874,-130.42075)">
    <circle
       style="fill:none;fill-opacity:1;stroke:#ffffff;stroke-width:0.79375;stroke-opacity:1;stroke-miterlimit:4;stroke-dasharray:none"
       id="path4800"
       cx="-8.4439154"
       cy="151.71971"
       r="20.788691" />
    <g
       transform="matrix(0.03875732,0,0,-0.03875732,-18.36579,161.64158)"
       inkscape:label="Vector Smart Object"
       id="g5030"
       style="fill:#ffffff;fill-opacity:1">
      <g
         id="g5032"
         style="fill:#ffffff;fill-opacity:1">
        <g
           clip-path="url(#clipPath5038)"
           id="g5034"
           style="fill:#ffffff;fill-opacity:1">
          <g
             transform="translate(281.6,477.8667)"
             id="g5040"
             style="fill:#ffffff;fill-opacity:1">
            <path
               inkscape:connector-curvature="0"
               id="path5042"
               style="fill:#ffffff;fill-opacity:1;fill-rule:nonzero;stroke:none"
               d="m 0,0 c 4.713,0 8.533,-3.82 8.533,-8.533 0,-4.713 -3.82,-8.534 -8.533,-8.534 -9.426,0 -17.067,-7.641 -17.067,-17.066 0,-4.713 -3.82,-8.534 -8.533,-8.534 -4.713,0 -8.533,3.821 -8.533,8.534 C -34.133,-15.282 -18.851,0 0,0 m 0,-102.4 c 37.703,0 68.267,30.564 68.267,68.267 0,37.702 -30.564,68.266 -68.267,68.266 -37.703,0 -68.267,-30.564 -68.267,-68.266 0,-37.703 30.564,-68.267 68.267,-68.267" />
          </g>
          <g
             transform="translate(93.8667,264.533)"
             id="g5044"
             style="fill:#ffffff;fill-opacity:1">
            <path
               inkscape:connector-curvature="0"
               id="path5046"
               style="fill:#ffffff;fill-opacity:1;fill-rule:nonzero;stroke:none"
               d="m 0,0 c 4.713,0 8.533,-3.82 8.533,-8.533 0,-4.713 -3.82,-8.533 -8.533,-8.533 -23.564,0 -42.667,-19.103 -42.667,-42.667 0,-4.713 -3.82,-8.533 -8.533,-8.533 -4.713,0 -8.533,3.82 -8.533,8.533 C -59.733,-26.743 -32.99,0 0,0 m 0,-153.6 c 51.841,0 93.866,42.026 93.866,93.867 0,51.841 -42.025,93.867 -93.866,93.867 -51.841,0 -93.867,-42.026 -93.867,-93.867 0,-51.841 42.026,-93.867 93.867,-93.867" />
          </g>
          <g
             transform="translate(128,409.6)"
             id="g5048"
             style="fill:#ffffff;fill-opacity:1">
            <path
               inkscape:connector-curvature="0"
               id="path5050"
               style="fill:#ffffff;fill-opacity:1;fill-rule:nonzero;stroke:none"
               d="m 0,0 c 4.713,0 8.533,-3.821 8.533,-8.533 0,-4.713 -3.82,-8.534 -8.533,-8.534 -4.713,0 -8.533,-3.82 -8.533,-8.533 0,-4.713 -3.821,-8.533 -8.534,-8.533 -4.712,0 -8.533,3.82 -8.533,8.533 C -25.6,-11.462 -14.138,0 0,0 m 0,-85.333 c 32.99,0 59.733,26.743 59.733,59.733 C 59.733,7.39 32.99,34.133 0,34.133 -32.99,34.133 -59.733,7.39 -59.733,-25.6 -59.733,-58.59 -32.99,-85.333 0,-85.333" />
          </g>
          <g
             transform="translate(401.067,349.867)"
             id="g5052"
             style="fill:#ffffff;fill-opacity:1">
            <path
               inkscape:connector-curvature="0"
               id="path5054"
               style="fill:#ffffff;fill-opacity:1;fill-rule:nonzero;stroke:none"
               d="m 0,0 c 4.713,0 8.533,-3.821 8.533,-8.534 0,-4.713 -3.82,-8.533 -8.533,-8.533 -32.99,0 -59.734,-26.744 -59.734,-59.733 0,-4.713 -3.82,-8.534 -8.533,-8.534 -4.713,0 -8.533,3.821 -8.533,8.534 C -76.8,-34.385 -42.416,0 0,0 m -110.934,-76.8 c 0,-61.267 49.667,-110.934 110.934,-110.934 61.266,0 110.933,49.667 110.933,110.934 0,61.266 -49.667,110.933 -110.933,110.933 -61.267,0 -110.934,-49.667 -110.934,-110.933" />
          </g>
          <g
             transform="translate(435.2,42.667)"
             id="g5056"
             style="fill:#ffffff;fill-opacity:1">
            <path
               inkscape:connector-curvature="0"
               id="path5058"
               style="fill:#ffffff;fill-opacity:1;fill-rule:nonzero;stroke:none"
               d="m 0,0 v 0 c -4.713,0 -8.533,3.82 -8.533,8.533 -0.807,9.94 -5.535,19.15 -13.142,25.6 -10.54,7.975 -23.979,11.079 -36.949,8.533 -4.669,-0.641 -8.974,2.623 -9.616,7.292 -0.01,0.073 -0.019,0.145 -0.027,0.218 -0.6,4.674 2.702,8.95 7.377,9.551 0.015,0.002 0.031,0.004 0.047,0.006 17.712,3.251 35.966,-1.289 50.091,-12.459 C 0.649,37.68 7.619,23.832 8.533,8.96 8.769,4.253 5.144,0.246 0.437,0.01 0.292,0.003 0.146,-0.001 0,0 m -92.075,4.693 c -2.098,-4.216 -7.216,-5.935 -11.434,-3.84 -6.166,2.047 -12.946,0.896 -18.091,-3.072 -5.953,-3.04 -10.374,-8.419 -12.203,-14.848 0,-4.713 -3.82,-8.533 -8.533,-8.533 -4.713,0 -8.533,3.82 -8.533,8.533 0,12.459 10.922,23.637 20.309,29.44 10.108,7.267 23.279,8.724 34.731,3.84 4.209,-2.119 5.904,-7.249 3.785,-11.459 -0.01,-0.02 -0.02,-0.041 -0.031,-0.061 m -118.528,-21.76 c -4.712,0 -8.533,3.82 -8.533,8.533 0,9.426 -7.641,17.067 -17.067,17.067 -4.712,0 -8.533,3.82 -8.533,8.533 0,4.713 3.821,8.534 8.533,8.534 18.852,0 34.134,-15.282 34.134,-34.134 0,-4.713 -3.821,-8.533 -8.534,-8.533 m -156.33,8.533 c -4.713,0 -8.534,-3.82 -8.534,-8.533 0,-4.713 -3.82,-8.533 -8.533,-8.533 -4.713,0 -8.533,3.82 -8.533,8.533 0,14.138 11.461,25.6 25.6,25.6 4.712,0 8.533,-3.821 8.533,-8.533 0,-4.713 -3.821,-8.534 -8.533,-8.534 M -42.667,102.4 c -14.506,0 -47.872,0 -75.093,-15.104 -18.688,17.834 -51.2,19.626 -76.8,11.264 -21.077,-6.998 -35.328,-19.883 -40.107,-35.499 -18.39,5.82 -38.385,3.588 -55.04,-6.144 -11.631,-7.03 -20.144,-18.23 -23.808,-31.317 -19.86,16.995 -47.537,21.504 -71.765,11.69 -28.709,-12.572 -47.979,-40.142 -49.92,-71.424 0,-4.713 3.82,-8.533 8.533,-8.533 H 68.267 c 4.713,0 8.533,3.82 8.533,8.533 C 76.8,54.528 15.275,102.4 -42.667,102.4" />
          </g>
        </g>
      </g>
    </g>
  </g>
</svg>
