<?xml version="1.0" encoding="UTF-8" standalone="no"?>
<!-- Created with Inkscape (http://www.inkscape.org/) -->

<svg
   xmlns:dc="http://purl.org/dc/elements/1.1/"
   xmlns:cc="http://creativecommons.org/ns#"
   xmlns:rdf="http://www.w3.org/1999/02/22-rdf-syntax-ns#"
   xmlns:svg="http://www.w3.org/2000/svg"
   xmlns="http://www.w3.org/2000/svg"
   xmlns:sodipodi="http://sodipodi.sourceforge.net/DTD/sodipodi-0.dtd"
   xmlns:inkscape="http://www.inkscape.org/namespaces/inkscape"
   width="161"
   height="161"
   viewBox="0 0 42.597917 42.597916"
   version="1.1"
   id="svg8"
   inkscape:version="0.92.1 r15371"
   sodipodi:docname="ico5.svg">
  <defs
     id="defs2">
    <clipPath
       id="clipPath4501"
       clipPathUnits="userSpaceOnUse">
      <path
         inkscape:connector-curvature="0"
         id="path4499"
         d="M 0,61.263 H 243.272 V 0 H 0 Z" />
    </clipPath>
    <clipPath
       id="clipPath4617"
       clipPathUnits="userSpaceOnUse">
      <path
         inkscape:connector-curvature="0"
         id="path4615"
         d="M 0,409.603 H 409.602 V 0 H 0 Z" />
    </clipPath>
    <clipPath
       id="clipPath4661"
       clipPathUnits="userSpaceOnUse">
      <path
         inkscape:connector-curvature="0"
         id="path4659"
         d="M 0,24.5 H 186.078 V 0 H 0 Z" />
    </clipPath>
    <clipPath
       id="clipPath4714"
       clipPathUnits="userSpaceOnUse">
      <path
         inkscape:connector-curvature="0"
         id="path4712"
         d="M 0,12 H 12 V 0 H 0 Z" />
    </clipPath>
    <clipPath
       id="clipPath4766"
       clipPathUnits="userSpaceOnUse">
      <path
         inkscape:connector-curvature="0"
         id="path4764"
         d="M 0,100.113 H 104.286 V 0 H 0 Z" />
    </clipPath>
    <clipPath
       id="clipPath4818"
       clipPathUnits="userSpaceOnUse">
      <path
         inkscape:connector-curvature="0"
         id="path4816"
         d="M 0,0 H 26 V 23.999 H 0 Z" />
    </clipPath>
    <clipPath
       id="clipPath4830"
       clipPathUnits="userSpaceOnUse">
      <path
         inkscape:connector-curvature="0"
         id="path4828"
         d="M 0,23.999 H 26 V 0 H 0 Z" />
    </clipPath>
    <clipPath
       id="clipPath5038"
       clipPathUnits="userSpaceOnUse">
      <path
         inkscape:connector-curvature="0"
         id="path5036"
         d="M 0,512 H 512 V 0 H 0 Z" />
    </clipPath>
    <clipPath
       id="clipPath5091"
       clipPathUnits="userSpaceOnUse">
      <path
         inkscape:connector-curvature="0"
         id="path5089"
         d="M 0,25.492 H 22.278 V 0 H 0 Z" />
    </clipPath>
  </defs>
  <sodipodi:namedview
     id="base"
     pagecolor="#ffffff"
     bordercolor="#666666"
     borderopacity="1.0"
     inkscape:pageopacity="0.0"
     inkscape:pageshadow="2"
     inkscape:zoom="1.979899"
     inkscape:cx="63.501962"
     inkscape:cy="89.835306"
     inkscape:document-units="mm"
     inkscape:current-layer="layer1"
     showgrid="false"
     fit-margin-top="0"
     fit-margin-left="0"
     fit-margin-right="0"
     fit-margin-bottom="0"
     inkscape:window-width="1366"
     inkscape:window-height="721"
     inkscape:window-x="-4"
     inkscape:window-y="-4"
     inkscape:window-maximized="1"
     units="px" />
  <metadata
     id="metadata5">
    <rdf:RDF>
      <cc:Work
         rdf:about="">
        <dc:format>image/svg+xml</dc:format>
        <dc:type
           rdf:resource="http://purl.org/dc/dcmitype/StillImage" />
        <dc:title></dc:title>
      </cc:Work>
    </rdf:RDF>
  </metadata>
  <g
     inkscape:label="Layer 1"
     inkscape:groupmode="layer"
     id="layer1"
     transform="translate(29.742874,-130.42075)">
    <circle
       style="fill:none;fill-opacity:1;stroke:#ffffff;stroke-width:0.79375;stroke-opacity:1;stroke-miterlimit:4;stroke-dasharray:none"
       id="path4800"
       cx="-8.4439154"
       cy="151.71971"
       r="20.788691" />
    <g
       transform="matrix(0.89074501,0,0,-0.89074501,-18.366058,163.07319)"
       inkscape:label="Vector Smart Object"
       id="g5083"
       style="fill:#ffffff;fill-opacity:1">
      <g
         id="g5085"
         style="fill:#ffffff;fill-opacity:1">
        <g
           clip-path="url(#clipPath5091)"
           id="g5087"
           style="fill:#ffffff;fill-opacity:1">
          <g
             transform="translate(19.6763,6.5781)"
             id="g5093"
             style="fill:#ffffff;fill-opacity:1">
            <path
               inkscape:connector-curvature="0"
               id="path5095"
               style="fill:#ffffff;fill-opacity:1;fill-rule:nonzero;stroke:none"
               d="M 0,0 -7.77,-4.484 V 1.305 L -8.02,1.18 C -8.188,1.113 -8.364,1.082 -8.535,1.082 c -0.168,0 -0.34,0.031 -0.512,0.094 L -9.09,1.184 -9.223,1.246 -9.301,1.285 V -4.484 L -17.071,0 v 5.195 l -1.531,0.774 v -6.41 c 0,-0.274 0.145,-0.528 0.383,-0.665 l 9.301,-5.372 c 0.117,-0.065 0.25,-0.1 0.383,-0.1 0.132,0 0.265,0.035 0.382,0.1 l 9.301,5.372 c 0.239,0.137 0.383,0.391 0.383,0.665 v 6.41 L 0,5.203 Z" />
          </g>
          <g
             transform="translate(11.6953,21.9258)"
             id="g5097"
             style="fill:#ffffff;fill-opacity:1">
            <path
               inkscape:connector-curvature="0"
               id="path5099"
               style="fill:#ffffff;fill-opacity:1;fill-rule:nonzero;stroke:none"
               d="m 0,0 -0.316,0.101 c -0.156,0.051 -0.324,0.051 -0.481,0 L -1.109,0 c 0.203,-0.473 0.391,-0.942 0.551,-1.391 C -0.394,-0.942 -0.207,-0.473 0,0" />
          </g>
          <g
             transform="translate(4.6333,23.0581)"
             id="g5101"
             style="fill:#ffffff;fill-opacity:1">
            <path
               inkscape:connector-curvature="0"
               id="path5103"
               style="fill:#ffffff;fill-opacity:1;fill-rule:nonzero;stroke:none"
               d="m 0,0 c 0.91,0.907 1.234,2.059 2.726,0.563 1.496,-1.496 2.684,-5.977 2.684,-5.977 0,0 -4.481,1.188 -5.977,2.684 C -2.059,-1.234 -0.91,-0.91 0,0 m 10.285,0.563 c 1.496,1.496 1.82,0.344 2.731,-0.563 0.91,-0.91 2.058,-1.234 0.562,-2.73 -1.492,-1.492 -5.977,-2.684 -5.977,-2.684 0,0 1.188,4.485 2.684,5.977 m 7.36,-5.707 v 0.012 c 0,0.019 -0.008,0.031 -0.008,0.046 -0.008,0.055 -0.016,0.106 -0.032,0.153 -0.007,0.023 -0.015,0.047 -0.027,0.07 -0.019,0.043 -0.039,0.082 -0.066,0.121 -0.016,0.02 -0.028,0.039 -0.043,0.059 -0.031,0.039 -0.067,0.07 -0.106,0.101 -0.015,0.016 -0.031,0.032 -0.05,0.047 -0.004,0 -0.008,0.004 -0.012,0.008 -0.055,0.039 -0.113,0.066 -0.176,0.086 -0.004,0 -0.004,0.004 -0.008,0.004 l -1.922,0.633 c -0.09,-0.098 -0.179,-0.192 -0.265,-0.278 -0.879,-0.879 -2.364,-1.613 -3.739,-2.156 l 1.637,-0.668 v -3.777 l -2.269,-1.145 v 3.946 l -2.606,1.375 c 0.672,0.179 4.817,1.347 6.438,2.968 0.472,0.469 1.093,1.203 1.054,2.106 -0.039,0.898 -0.668,1.426 -1.175,1.847 -0.141,0.122 -0.297,0.25 -0.446,0.395 C 13.68,0.957 13.551,1.11 13.43,1.258 13.016,1.754 12.445,2.434 11.496,2.434 10.629,2.434 9.926,1.829 9.473,1.375 7.851,-0.246 6.687,-4.398 6.508,-5.062 6.328,-4.398 5.164,-0.246 3.539,1.375 3.086,1.832 2.383,2.434 1.515,2.434 0.566,2.434 -0.004,1.754 -0.418,1.258 -0.539,1.114 -0.668,0.957 -0.813,0.813 -0.961,0.664 -1.113,0.539 -1.258,0.418 -1.766,-0.007 -2.395,-0.535 -2.434,-1.433 -2.473,-2.336 -1.852,-3.07 -1.379,-3.539 0.242,-5.164 4.39,-6.328 5.058,-6.507 L 2.457,-7.882 v -3.946 l -2.274,1.145 v 3.777 l 1.641,0.668 c -1.379,0.543 -2.863,1.277 -3.742,2.156 -0.086,0.086 -0.176,0.18 -0.262,0.278 L -4.106,-4.437 H -4.11 c -0.062,-0.024 -0.121,-0.051 -0.179,-0.09 -0.004,0 -0.008,-0.004 -0.012,-0.008 -0.02,-0.015 -0.035,-0.031 -0.051,-0.043 -0.039,-0.035 -0.074,-0.066 -0.105,-0.101 -0.016,-0.02 -0.028,-0.043 -0.043,-0.063 -0.024,-0.039 -0.047,-0.078 -0.067,-0.121 -0.007,-0.023 -0.019,-0.047 -0.027,-0.07 -0.016,-0.047 -0.023,-0.098 -0.027,-0.153 -0.004,-0.015 -0.012,-0.027 -0.012,-0.046 0,-0.004 0.004,-0.008 0.004,-0.012 0,-0.008 -0.004,-0.016 -0.004,-0.02 v -3.48 c 0,-0.289 0.164,-0.555 0.422,-0.684 L 6.16,-14.55 c 0.012,-0.004 0.023,-0.004 0.035,-0.008 0.098,-0.043 0.203,-0.074 0.309,-0.074 0.109,0 0.215,0.031 0.312,0.074 0.012,0.004 0.024,0.004 0.035,0.008 l 10.372,5.222 c 0.257,0.133 0.422,0.395 0.422,0.684 v 3.48 z" />
          </g>
        </g>
      </g>
    </g>
  </g>
</svg>
