<?xml version="1.0" encoding="UTF-8" standalone="no"?>
<!-- Created with Inkscape (http://www.inkscape.org/) -->

<svg
   xmlns:dc="http://purl.org/dc/elements/1.1/"
   xmlns:cc="http://creativecommons.org/ns#"
   xmlns:rdf="http://www.w3.org/1999/02/22-rdf-syntax-ns#"
   xmlns:svg="http://www.w3.org/2000/svg"
   xmlns="http://www.w3.org/2000/svg"
   xmlns:sodipodi="http://sodipodi.sourceforge.net/DTD/sodipodi-0.dtd"
   xmlns:inkscape="http://www.inkscape.org/namespaces/inkscape"
   width="161"
   height="161"
   viewBox="0 0 42.597917 42.597916"
   version="1.1"
   id="svg8"
   inkscape:version="0.92.1 r15371"
   sodipodi:docname="ico6.svg">
  <defs
     id="defs2">
    <clipPath
       id="clipPath4501"
       clipPathUnits="userSpaceOnUse">
      <path
         inkscape:connector-curvature="0"
         id="path4499"
         d="M 0,61.263 H 243.272 V 0 H 0 Z" />
    </clipPath>
    <clipPath
       id="clipPath4617"
       clipPathUnits="userSpaceOnUse">
      <path
         inkscape:connector-curvature="0"
         id="path4615"
         d="M 0,409.603 H 409.602 V 0 H 0 Z" />
    </clipPath>
    <clipPath
       id="clipPath4661"
       clipPathUnits="userSpaceOnUse">
      <path
         inkscape:connector-curvature="0"
         id="path4659"
         d="M 0,24.5 H 186.078 V 0 H 0 Z" />
    </clipPath>
    <clipPath
       id="clipPath4714"
       clipPathUnits="userSpaceOnUse">
      <path
         inkscape:connector-curvature="0"
         id="path4712"
         d="M 0,12 H 12 V 0 H 0 Z" />
    </clipPath>
    <clipPath
       id="clipPath4766"
       clipPathUnits="userSpaceOnUse">
      <path
         inkscape:connector-curvature="0"
         id="path4764"
         d="M 0,100.113 H 104.286 V 0 H 0 Z" />
    </clipPath>
    <clipPath
       id="clipPath4818"
       clipPathUnits="userSpaceOnUse">
      <path
         inkscape:connector-curvature="0"
         id="path4816"
         d="M 0,0 H 26 V 23.999 H 0 Z" />
    </clipPath>
    <clipPath
       id="clipPath4830"
       clipPathUnits="userSpaceOnUse">
      <path
         inkscape:connector-curvature="0"
         id="path4828"
         d="M 0,23.999 H 26 V 0 H 0 Z" />
    </clipPath>
    <clipPath
       id="clipPath5038"
       clipPathUnits="userSpaceOnUse">
      <path
         inkscape:connector-curvature="0"
         id="path5036"
         d="M 0,512 H 512 V 0 H 0 Z" />
    </clipPath>
    <clipPath
       id="clipPath5091"
       clipPathUnits="userSpaceOnUse">
      <path
         inkscape:connector-curvature="0"
         id="path5089"
         d="M 0,25.492 H 22.278 V 0 H 0 Z" />
    </clipPath>
    <clipPath
       id="clipPath5132"
       clipPathUnits="userSpaceOnUse">
      <path
         inkscape:connector-curvature="0"
         id="path5130"
         d="M 0,0 H 22.001 V 24 H 0 Z" />
    </clipPath>
  </defs>
  <sodipodi:namedview
     id="base"
     pagecolor="#ffffff"
     bordercolor="#666666"
     borderopacity="1.0"
     inkscape:pageopacity="0.0"
     inkscape:pageshadow="2"
     inkscape:zoom="0.98994949"
     inkscape:cx="17.311849"
     inkscape:cy="81.036059"
     inkscape:document-units="mm"
     inkscape:current-layer="layer1"
     showgrid="false"
     fit-margin-top="0"
     fit-margin-left="0"
     fit-margin-right="0"
     fit-margin-bottom="0"
     inkscape:window-width="1366"
     inkscape:window-height="721"
     inkscape:window-x="-4"
     inkscape:window-y="-4"
     inkscape:window-maximized="1"
     units="px" />
  <metadata
     id="metadata5">
    <rdf:RDF>
      <cc:Work
         rdf:about="">
        <dc:format>image/svg+xml</dc:format>
        <dc:type
           rdf:resource="http://purl.org/dc/dcmitype/StillImage" />
        <dc:title></dc:title>
      </cc:Work>
    </rdf:RDF>
  </metadata>
  <g
     inkscape:label="Layer 1"
     inkscape:groupmode="layer"
     id="layer1"
     transform="translate(29.742874,-130.42075)">
    <circle
       style="fill:none;fill-opacity:1;stroke:#ffffff;stroke-width:0.79375;stroke-opacity:1;stroke-miterlimit:4;stroke-dasharray:none"
       id="path4800"
       cx="-8.4439154"
       cy="151.71971"
       r="20.788691" />
    <g
       transform="matrix(0.91775738,0,0,-0.91775738,-18.365791,162.9214)"
       inkscape:label="Vector Smart Object"
       id="g5124"
       style="fill:#ffffff;fill-opacity:1">
      <g
         id="g5126"
         style="fill:#ffffff;fill-opacity:1">
        <g
           clip-path="url(#clipPath5132)"
           id="g5128"
           style="fill:#ffffff;fill-opacity:1">
          <path
             inkscape:connector-curvature="0"
             id="path5134"
             style="fill:#ffffff;fill-opacity:1;fill-rule:nonzero;stroke:none"
             d="m 14.61,5.829 h 3.367 V 5.227 H 14.61 Z M 8.492,2.474 10.809,8.81 10.094,10.349 h 1.433 L 10.809,8.81 13.129,2.474 11.672,0.461 c 2.953,0.493 7.664,3.114 9.95,3.114 l -0.801,3.453 c -0.242,0.25 -0.531,0.461 -0.867,0.633 -1.676,0.86 -3.411,1.57 -5.164,2.246 -0.133,0.05 -0.29,0.148 -0.344,0.261 -0.141,0.321 -0.242,0.657 -0.344,0.985 -0.066,0.215 -0.121,0.414 -0.355,0.515 -0.063,0.028 -0.118,0.153 -0.118,0.231 0.012,0.769 -0.164,1.578 0.407,2.25 0.015,0.019 0.023,0.051 0.035,0.074 0.308,0.676 0.363,1.445 0.793,2.074 0.011,0.016 0.015,0.035 0.015,0.055 0.051,0.48 0.102,0.957 0.145,1.434 0.004,0.062 -0.051,0.168 -0.098,0.183 -0.238,0.086 -0.226,0.274 -0.226,0.465 v 2.008 c 0,0.547 -0.16,1.027 -0.571,1.398 -0.468,0.422 -0.949,0.828 -1.429,1.235 -0.235,0.195 -0.254,0.347 -0.035,0.562 0.093,0.098 0.218,0.164 0.328,0.246 -0.024,0.035 -0.047,0.074 -0.071,0.11 -0.148,0 -0.293,0.019 -0.433,-0.004 -0.531,-0.086 -1.067,-0.16 -1.591,-0.282 C 9.902,23.469 8.934,23.161 8.121,22.489 7.57,22.036 7.125,21.504 7.07,20.75 7.043,20.356 7.047,19.961 7.043,19.567 7.039,18.922 7.047,19.079 7.035,18.438 7.031,18.332 6.973,18.161 6.902,18.137 6.641,18.055 6.633,17.887 6.668,17.668 6.695,17.52 6.676,17.364 6.707,17.219 6.797,16.817 6.895,16.415 7.008,16.02 7.094,15.727 7.262,15.45 7.309,15.149 7.402,14.551 7.625,14.028 8.027,13.579 8.094,13.5 8.145,13.375 8.137,13.278 8.105,12.817 8.059,12.356 7.996,11.899 7.98,11.81 7.891,11.677 7.813,11.661 7.508,11.599 7.461,11.36 7.387,11.122 7.289,10.81 7.188,10.493 7.066,10.188 7.027,10.094 6.934,9.997 6.84,9.954 6.297,9.719 5.742,9.5 5.191,9.271 4.609,9.024 4.02,8.79 3.453,8.521 2.863,8.239 2.293,7.922 1.719,7.614 1.379,7.435 1.066,7.231 0.801,6.985 L 0,3.575 c 3.898,0 5.934,-2.817 9.988,-3.164 z" />
        </g>
      </g>
    </g>
  </g>
</svg>
