<?xml version="1.0" encoding="UTF-8" standalone="no"?>
<!-- Created with Inkscape (http://www.inkscape.org/) -->

<svg
   xmlns:dc="http://purl.org/dc/elements/1.1/"
   xmlns:cc="http://creativecommons.org/ns#"
   xmlns:rdf="http://www.w3.org/1999/02/22-rdf-syntax-ns#"
   xmlns:svg="http://www.w3.org/2000/svg"
   xmlns="http://www.w3.org/2000/svg"
   xmlns:sodipodi="http://sodipodi.sourceforge.net/DTD/sodipodi-0.dtd"
   xmlns:inkscape="http://www.inkscape.org/namespaces/inkscape"
   version="1.1"
   id="svg2"
   xml:space="preserve"
   width="454.69333"
   height="559.69464"
   viewBox="0 0 454.69333 559.69464"
   sodipodi:docname="loc.svg"
   inkscape:version="0.92.1 r15371"><metadata
     id="metadata8"><rdf:RDF><cc:Work
         rdf:about=""><dc:format>image/svg+xml</dc:format><dc:type
           rdf:resource="http://purl.org/dc/dcmitype/StillImage" /><dc:title></dc:title></cc:Work></rdf:RDF></metadata><defs
     id="defs6"><clipPath
       clipPathUnits="userSpaceOnUse"
       id="clipPath18"><path
         d="M 0,419.771 H 341.02 V 0 H 0 Z"
         id="path16"
         inkscape:connector-curvature="0" /></clipPath></defs><sodipodi:namedview
     pagecolor="#ffffff"
     bordercolor="#666666"
     borderopacity="1"
     objecttolerance="10"
     gridtolerance="10"
     guidetolerance="10"
     inkscape:pageopacity="0"
     inkscape:pageshadow="2"
     inkscape:window-width="920"
     inkscape:window-height="845"
     id="namedview4"
     showgrid="false"
     inkscape:zoom="0.42165849"
     inkscape:cx="227.34666"
     inkscape:cy="279.84732"
     inkscape:window-x="0"
     inkscape:window-y="0"
     inkscape:window-maximized="0"
     inkscape:current-layer="g12" /><g
     id="g10"
     inkscape:groupmode="layer"
     inkscape:label="Vector Smart Object2"
     transform="matrix(1.3333333,0,0,-1.3333333,0,559.69467)"><g
       id="g12"><g
         id="g14"
         clip-path="url(#clipPath18)"
         style="fill:#00aeef;fill-opacity:1"><g
           id="g20"
           transform="translate(170.9185,298.9937)"
           style="fill:#00aeef;fill-opacity:1"><path
             d="M 0,0 C 27.465,0 49.734,-22.266 49.734,-49.735 49.734,-77.2 27.465,-99.464 0,-99.464 c -27.469,0 -49.734,22.264 -49.734,49.729 C -49.734,-22.266 -27.469,0 0,0 m 170.102,-49.735 c 0,94.172 -76.34,170.512 -170.508,170.512 -94.172,0 -170.512,-76.34 -170.512,-170.512 0,-54.901 25.953,-103.733 66.258,-134.923 L 1.336,-298.994 105.852,-183.082 c 39.156,31.243 64.25,79.364 64.25,133.347"
             style="fill:#00aeef;fill-opacity:1;fill-rule:nonzero;stroke:none"
             id="path22"
             inkscape:connector-curvature="0" /></g></g></g></g></svg>