<?xml version="1.0" encoding="UTF-8"?>
<!DOCTYPE svg PUBLIC "-//W3C//DTD SVG 1.1//EN" "http://www.w3.org/Graphics/SVG/1.1/DTD/svg11.dtd">
<!-- Creator: CorelDRAW X7 -->
<svg xmlns="http://www.w3.org/2000/svg" xml:space="preserve" width="645px" height="279px" version="1.1" style="shape-rendering:geometricPrecision; text-rendering:geometricPrecision; image-rendering:optimizeQuality; fill-rule:evenodd; clip-rule:evenodd"
viewBox="0 0 645 279"
 xmlns:xlink="http://www.w3.org/1999/xlink">
 <defs>
  <style type="text/css">
   <![CDATA[
    .str1 {stroke:#FFFFFF;stroke-width:3.99923}
    .str0 {stroke:#FFFFFF;stroke-width:7.99964}
    .str3 {stroke:#FFFFFF;stroke-width:7.99964}
    .str2 {stroke:#FFFFFF;stroke-width:4.99962}
    .fil0 {fill:none}
    .fil3 {fill:#FFFFFF}
    .fil1 {fill:#FFFFFF}
    .fil2 {fill:#FFFFFF;fill-rule:nonzero}
   ]]>
  </style>
 </defs>
 <g id="Слой_x0020_1">
  <metadata id="CorelCorpID_0Corel-Layer"/>
  <path class="fil0 str0" d="M3101 801l189 0m-150 -82l103 0m-151 54l0 -39c0,-17 13,-15 13,-15l33 0 0 -25c1,-9 9,-10 9,-10l23 0 0 -33c-13,-1 -32,-9 -32,-21l-1 -10c0,-16 20,-21 33,-21l43 0c12,0 32,5 32,21l0 10c0,12 -19,20 -32,21l-1 33 23 0c0,0 8,1 10,10l0 25 33 0c0,0 13,-2 12,15l0 39 -198 0z"/>
  <path class="fil0 str0" d="M3535 804c-109,-56 -108,-152 -108,-152l-1 -54c64,32 109,0 109,0 0,0 45,32 109,0l-1 54c0,0 2,96 -108,152zm-34 -115l29 29 58 -58"/>
  <path class="fil0 str0" d="M2785 765c0,0 22,2 25,25m133 -25c0,0 -22,2 -25,25m25 -66c0,0 -22,-1 -25,-25m-54 81c-17,0 -31,-16 -31,-35 0,-19 14,-34 31,-34 17,0 30,15 30,34 0,19 -13,35 -30,35zm-83 -85l0 100 166 0 0 -100 -166 0zm4 29c0,0 22,-1 25,-25m153 -20c0,0 -22,-2 -25,-25m-81 29c6,-11 16,-18 27,-18 11,0 21,7 26,18m57 67l0 -100 -166 0 0 33m4 -4c0,0 22,-2 25,-25m154 -21c0,0 -21,-2 -24,-25m-81 28c5,-10 15,-17 26,-17 12,0 21,7 27,17m56 68l0 -101 -166 0 0 33m5 -3c0,0 21,-2 24,-25"/>
  <path class="fil0 str0" d="M2498 708l22 22 -62 62 -22 -22 62 -62zm28 -8c-26,-26 -26,-67 0,-92 25,-26 66,-26 92,0 25,25 25,66 0,92 -26,25 -67,25 -92,0zm13 -22c-12,-16 -11,-39 4,-53 14,-15 37,-16 53,-4m9 9c11,16 10,38 -5,53 -14,14 -36,16 -52,4m-21 14l-18 18"/>
  <path class="fil1" d="M1159 610l52 0c2,0 4,0 6,1l-26 26 -12 0 -26 -25c1,-2 4,-2 6,-2zm63 6c0,2 1,4 1,5l0 29c0,2 -1,4 -2,6l-23 -16 24 -24zm-6 44c-2,1 -3,2 -5,2l-52 0c-1,0 -2,-1 -3,-1l22 -18 4 3 7 0 4 -2 23 16zm-66 -3c-1,-2 -2,-4 -2,-7l0 -29c0,-1 0,-3 1,-5l23 23 -22 18z"/>
  <path class="fil1" d="M2518 408l28 -13c2,-1 4,0 4,1l24 50c1,2 0,3 -1,4l-28 14c-2,0 -3,0 -4,-2l-24 -50c-1,-1 0,-3 1,-4zm6 4l21 -10c2,-1 3,-1 3,0l16 34c1,1 0,2 -1,3l-21 10c-1,0 -3,0 -3,-1l-16 -33c-1,-1 0,-3 1,-3z"/>
  <g id="_1326254367040">
   <polygon class="fil1" points="2776,443 2884,443 2884,456 2776,456 "/>
   <polygon class="fil1" points="2776,416 2884,416 2884,430 2776,430 "/>
   <polygon class="fil1" points="2776,392 2884,392 2884,405 2776,405 "/>
  </g>
  <path class="fil0 str1" d="M1998 -47c0,-3 -75,69 -75,69l-8 1 -10 10 -3 9 -4 7 -5 3 -6 2 -2 5 6 4 12 2 13 -1 9 -5 5 -10 3 -9 2 -7 70 -72 0 -7 -7 -1z"/>
  <path class="fil0 str1" d="M1841 8l85 0 15 -14 -104 0c-3,0 -6,3 -6,6l0 85c0,3 3,6 6,6l152 0c3,0 6,-3 6,-6l0 -85c0,-3 -3,-6 -6,-6l-5 0 -14 14 12 0 0 71 -141 0 0 -71zm-11 -24l121 0 15 -14 -139 0c-10,0 -18,8 -18,19l0 109c0,11 8,19 18,19l54 0 -7 11c0,0 -2,8 5,11l66 0c0,0 10,-4 6,-13l-8 -9 54 0c11,0 19,-8 19,-19l0 -109c0,-8 -4,-14 -11,-17l-12 12 1 0c5,0 9,4 9,9l0 102c0,5 -4,9 -9,9l-164 0c-4,0 -8,-4 -8,-9l0 -102c0,-5 4,-9 8,-9zm62 133l-6 9 1 2 52 0 1 -1 -6 -10 -42 0z"/>
  <path class="fil0 str1" d="M-202 -155l20 12 23 -8 -20 -21 2 -5 11 -3 38 19 39 -15 11 1 5 5 -1 6 -92 35 -25 -2 -16 -16 0 -6 5 -2zm-9 -90l138 0c11,0 21,10 21,22l0 133c0,6 -5,10 -11,10l-158 0c-6,0 -11,-4 -11,-10l0 -133c0,-12 10,-22 21,-22zm-5 36l150 0 0 113 -150 0 0 -113zm107 -9c-4,0 -7,-3 -7,-7 0,-4 3,-7 7,-7 4,0 7,3 7,7 0,4 -3,7 -7,7zm19 0c-4,0 -7,-3 -7,-7 0,-4 3,-7 7,-7 4,0 7,3 7,7 0,4 -3,7 -7,7zm19 0c-4,0 -7,-3 -7,-7 0,-4 3,-7 7,-7 4,0 8,3 8,7 0,4 -4,7 -8,7z"/>
  <path class="fil0 str1" d="M1980 -563l34 0 0 8 -34 0 0 -8zm165 0l14 0 0 8 -14 0 0 -8zm-162 19l41 0 0 -30 -56 0 0 158c0,6 6,11 12,11l182 0c7,0 12,-5 12,-11l0 -158 -118 0 0 30 101 0c2,0 3,2 3,4l0 120c0,2 -1,3 -3,3l-174 0c-2,0 -3,-1 -3,-3l0 -120c0,-2 1,-4 3,-4zm53 -51l9 0c2,0 4,2 4,3l0 97 16 -16 1 0 10 10 0 2 -33 31 -4 0 -32 -31 0 -2 9 -10 1 0 16 15 0 -96c0,-1 2,-3 3,-3zm87 106c-6,0 -12,-5 -12,-12 0,-6 6,-11 12,-11 6,0 11,5 11,11 0,7 -5,12 -11,12zm-31 -21l7 -12c1,0 2,0 2,0l6 3c2,-2 4,-3 7,-4l0 -7c0,-1 1,-2 1,-2l14 0c1,0 2,1 2,2l0 7c2,0 5,2 7,3l6 -3c1,0 2,0 2,0l7 12c0,1 0,2 -1,2l-6 4c1,1 1,3 1,4 0,2 0,3 0,4l6 3c0,1 1,2 0,2l-6 12c-1,1 -2,1 -2,1l-6 -4c-2,2 -5,4 -7,5l0 7c0,1 -1,1 -2,1l-13 0c-1,0 -2,0 -2,-1l0 -7c-2,-1 -5,-2 -7,-4l-6 4c-1,0 -2,0 -2,-1l-7 -12c0,0 0,-1 1,-2l5 -3c0,-1 0,-3 0,-5 0,-1 0,-2 0,-3l-6 -4c-1,0 -1,-1 -1,-2zm-102 52l159 0c1,0 2,1 2,2l0 7c0,1 -1,2 -2,2l-159 0c-1,0 -2,-1 -2,-2l0 -7c0,-1 1,-2 2,-2zm0 17l159 0c1,0 2,1 2,2l0 7c0,1 -1,2 -2,2l-159 0c-1,0 -2,-1 -2,-2l0 -7c0,-1 1,-2 2,-2z"/>
  <path class="fil0 str1" d="M2208 -68l90 0 0 37 -9 0c-6,0 -11,5 -11,11l0 2c0,6 5,11 11,11l9 0 0 1 -9 0c-6,0 -11,5 -11,11l0 1c0,7 5,12 11,12l9 0 0 1 -9 0c-6,0 -11,5 -11,11l0 1c0,7 5,12 11,12l9 0 0 2 -9 0c-6,0 -11,5 -11,11l0 1c0,6 5,11 11,11l9 0 0 6 -90 0 0 -86 31 -25 8 -12c2,-6 -7,-13 -9,-14 -2,0 -10,1 -10,1l-20 15 0 -21zm102 37l4 0c6,0 11,5 11,11l0 2c0,6 -5,11 -11,11l-4 0 0 1 4 0c6,0 11,5 11,11l0 1c0,7 -5,12 -11,12l-4 0 0 1 4 0c6,0 11,5 11,11l0 1c0,7 -5,12 -11,12l-4 0 0 2 4 0c6,0 11,5 11,11l0 1c0,6 -5,11 -11,11l-4 0 0 15c0,9 -7,17 -16,17l-82 0c-9,0 -16,-8 -16,-17l0 -10c-3,0 -7,0 -12,0 -24,0 -47,-19 -47,-55 0,-36 31,-47 31,-47l28 -13 0 -40c0,-7 6,-12 13,-12l89 0c7,0 12,5 12,12l0 51zm-71 -51l29 0 0 4 -29 0 0 -4zm11 164l9 0 0 9 -9 0 0 -9z"/>
  <path class="fil0 str1" d="M-451 88l17 103c0,0 2,10 11,11l106 0c0,0 18,-12 -1,-20l-90 0 -7 0 0 -12 107 1c0,0 10,-2 11,-16 0,0 7,-60 8,-60 1,0 -12,-9 -12,-9l-127 0 -2 -9 -6 -7 -6 -2 -23 1 -6 3 -4 5 0 5 4 5 8 2 12 -1zm43 150c-9,0 -16,-7 -16,-16 0,-8 7,-16 16,-16 9,0 16,8 16,16 0,9 -7,16 -16,16zm84 0c-8,0 -16,-7 -16,-16 0,-8 8,-16 16,-16 9,0 16,8 16,16 0,9 -7,16 -16,16zm-103 -131l3 16 28 0 0 -6 -1 -10 -30 0zm6 29l3 16 24 0 -1 -16 -26 0zm39 16l24 0 -1 -16 -23 0 0 16zm37 0l25 0 3 -16 -28 0 0 16zm30 -29l2 -16 -32 0 0 16 30 0zm-45 -16l-23 0 0 16 24 0 -1 -16z"/>
  <path class="fil0 str1" d="M-314 228l140 0c11,0 20,8 20,19l0 126c0,6 -4,10 -10,10l-160 0c-6,0 -10,-4 -10,-10l0 -126c0,-11 9,-19 20,-19zm88 24c-3,0 -6,-2 -6,-6 0,-3 3,-6 6,-6 4,0 7,3 7,6 0,4 -3,6 -7,6zm24 0c-3,0 -6,-2 -6,-6 0,-3 3,-6 6,-6 4,0 6,3 6,6 0,4 -2,6 -6,6zm22 0c-3,0 -6,-2 -6,-6 0,-3 3,-6 6,-6 3,0 6,3 6,6 0,4 -3,6 -6,6zm-139 13l151 0 0 96c0,5 -5,10 -10,10l-131 0c-5,0 -10,-5 -10,-10l0 -96zm11 11l59 0 0 59 -59 0 0 -59zm24 31c-5,-2 -8,-7 -8,-12 0,-8 6,-14 13,-14 8,0 14,6 14,14 0,5 -4,10 -8,12l3 5 2 0c3,0 6,3 6,6l0 6 -33 0 0 -6c0,-3 3,-6 6,-6l2 0 3 -5zm-24 34l59 0 0 6 -59 0 0 -6zm0 12l59 0 0 6 -59 0 0 -6zm76 0l54 0 0 6 -54 0 0 -6zm0 -12l54 0 0 6 -54 0 0 -6zm0 -12l54 0 0 6 -54 0 0 -6zm0 -12l54 0 0 7 -54 0 0 -7zm0 -12l54 0 0 7 -54 0 0 -7zm0 -12l54 0 0 7 -54 0 0 -7zm0 -12l31 0 0 7 -31 0 0 -7z"/>
  <path class="fil0 str1" d="M307 462l148 0c10,0 18,8 18,18l0 102c0,10 -8,18 -18,18l-148 0c-10,0 -18,-8 -18,-18l0 -102c0,-10 8,-18 18,-18zm-6 12l131 0 0 21 -131 0 0 -21zm150 23c-6,0 -11,-5 -11,-11 0,-6 5,-11 11,-11 6,0 11,5 11,11 0,6 -5,11 -11,11zm-146 10l153 0c2,0 3,1 3,2l0 74c0,4 -3,6 -6,6l-148 0c-2,0 -5,-2 -5,-5l0 -75c0,-1 1,-2 3,-2zm11 26l9 0 3 16 5 -16 8 0 5 16 3 -16 9 0 -6 30 -10 0 -5 -19 -5 19 -9 0 -7 -30zm42 0l9 0 3 16 5 -16 9 0 4 16 4 -16 8 0 -6 30 -9 0 -6 -19 -5 19 -9 0 -7 -30zm42 0l9 0 3 16 5 -16 9 0 5 16 3 -16 9 0 -7 30 -9 0 -6 -19 -5 19 -9 0 -7 -30z"/>
  <path class="fil0 str1" d="M1039 -86l189 0c6,0 11,5 11,11l0 181c0,7 -5,12 -11,12l-189 0c-7,0 -12,-5 -12,-12l0 -181c0,-6 5,-11 12,-11zm4 16l181 0 0 173 -181 0 0 -173zm11 11l158 0 0 53 -158 0 0 -53zm123 6l-45 15 -47 -15 92 0zm-59 20l-57 19 0 -36 57 17zm-26 20l44 -14 48 14 -92 0zm58 -19l54 -18 0 35 -54 -17zm-96 37l28 0 0 35 -28 0 0 -35zm0 52l28 0 0 35 -28 0 0 -35zm36 -52l39 0 0 8 -39 0 0 -8zm0 13l39 0 0 8 -39 0 0 -8zm0 13l22 0 0 8 -22 0 0 -8zm0 26l39 0 0 8 -39 0 0 -8zm0 13l17 0 0 8 -17 0 0 -8zm52 -65l70 0 0 8 -70 0 0 -8zm0 13l70 0 0 8 -70 0 0 -8zm0 13l29 0 0 8 -29 0 0 -8zm0 14l70 0 0 9 -70 0 0 -9zm0 13l30 0 0 9 -30 0 0 -9zm0 13l71 0 0 9 -71 0 0 -9zm0 13l45 0 0 9 -45 0 0 -9zm38 -26l33 0 0 9 -33 0 0 -9z"/>
  <path class="fil0 str2" d="M881 224l100 0c2,0 4,2 4,4l0 100c0,2 -2,3 -4,3l-100 0c-1,0 -3,-1 -3,-3l0 -100c0,-2 2,-4 3,-4zm-1 26l103 0m-91 -15l4 0 0 4 -4 0 0 -4zm16 0l4 0 0 4 -4 0 0 -4zm11 0l4 0 0 4 -4 0 0 -4z"/>
  <path class="fil0 str2" d="M-344 -56l117 0c2,0 4,2 4,4l0 72c0,3 -2,5 -4,5l-117 0c-2,0 -5,-2 -5,-5l0 -72c0,-2 3,-4 5,-4zm18 44l17 -13 17 4 14 3 37 -22m-81 41l10 0 0 11 -10 0 0 -11zm21 -11l11 0 0 22 -11 0 0 -22zm24 7l11 0 0 15 -11 0 0 -15zm20 -18l11 0 0 33 -11 0 0 -33zm-34 46c0,3 0,5 -1,7 0,2 -1,4 -3,6 -2,2 -4,4 -6,6 -1,1 -2,2 -3,2 0,1 0,1 3,1 4,0 11,0 17,0 7,0 14,0 18,0 3,0 3,0 3,-1 -1,0 -2,-1 -4,-2 -1,-2 -3,-4 -5,-6 -2,-2 -3,-4 -3,-6 -1,-2 -1,-4 -1,-7"/>
  <path class="fil0 str2" d="M763 -82l38 0 0 44 -38 0c-3,0 -6,-2 -6,-5l0 -33c0,-3 3,-6 6,-6zm38 0l60 -29 0 103 -60 -30m24 11c-3,11 -13,19 -24,19 -14,0 -24,-12 -24,-26 0,-1 0,-3 0,-4"/>
  <path class="fil0 str2" d="M197 -522c0,3 0,5 -1,7 0,2 -1,4 -3,6 -2,2 -4,4 -5,5 -2,2 -3,3 -4,3 0,0 0,0 4,0 3,0 10,0 16,0 7,0 14,0 17,0 3,0 4,0 3,0 0,0 -1,-1 -3,-3 -2,-1 -4,-3 -5,-5 -2,-2 -3,-4 -4,-6 0,-2 -1,-4 -1,-7m-66 -80l114 0c3,0 5,2 5,5l0 70c0,3 -2,5 -5,5l-114 0c-2,0 -4,-2 -4,-5l0 -70c0,-3 2,-5 4,-5zm18 62l0 -13m10 13l0 -39m10 39l0 -22m10 22l0 -30m11 30l0 -44m31 5l3 3 8 5 0 5 1 9 -4 2 -6 7 -5 -2 -9 0 -1 -5 -5 -7 2 -4 3 -9 4 -1 9 -3z"/>
  <path class="fil0 str1" d="M2435 -486l-42 106 -1 4 1 4 4 3 5 2 5 -1 3 -4 41 -104 0 -7 -2 -3 -4 -3 -5 0 -3 1 -2 2zm-46 28l-30 29 28 29 2 3 -1 4 -2 4 -4 3 -5 0 -5 -3 -37 -37 0 -5 42 -40 3 0 5 2 4 5 1 4 -1 2zm68 0l29 29 -28 29 -1 3 0 4 2 4 4 3 5 0 6 -3 37 -37 0 -5 -43 -40 -3 0 -5 2 -4 5 -1 4 2 2z"/>
  <path class="fil0 str1" d="M2665 -545l117 0 27 43 24 52 -22 46 -33 49 -112 0c-7,0 -12,-5 -12,-11l0 -169c0,-5 5,-10 11,-10zm45 62l47 0 0 6 -47 0 0 -6zm0 14l47 0 0 7 -47 0 0 -7zm0 14l47 0 0 7 -47 0 0 -7zm-25 -48l96 0 0 104 -21 0 0 -30 -30 0 0 30 -18 0 0 -29 -7 0 0 29 -20 0 0 -104z"/>
  <path class="fil0 str1" d="M2945 -374c-23,-8 -41,-29 -47,-54l0 -33c6,-28 29,-50 57,-57l33 0c12,3 23,9 32,16l-22 24c-7,-5 -17,-9 -27,-9 -23,0 -42,19 -42,43 0,23 19,42 42,42 18,0 34,-11 40,-26l-43 0 0 -31 72 0 0 46c-8,18 -24,32 -42,39l-53 0z"/>
  <path class="fil0 str1" d="M3183 -489c2,0 5,0 8,0 3,0 6,1 8,2 1,1 3,2 4,2 0,1 1,1 1,1 1,0 2,0 5,-4 4,-3 10,-10 14,-13 4,-4 5,-5 6,-5 2,-1 4,-2 6,-2 2,0 5,1 7,1 2,1 4,2 5,3 2,1 3,2 4,3 2,2 3,4 3,6 1,1 2,3 2,6 -1,2 -1,5 -3,7 -2,3 -4,6 -12,12 -7,7 -19,18 -25,24 -7,6 -9,7 -10,8 -2,0 -3,0 -5,0 -2,0 -3,0 -5,-1 -2,-1 -4,-4 -6,-5 -2,-1 -4,-2 -5,-3 -2,0 -3,0 -5,1 -2,0 -4,2 -5,3 -2,1 -3,3 -4,4 0,1 -1,2 -1,3 0,1 1,3 3,5 2,2 5,4 8,6 3,2 6,4 9,5 3,1 6,1 8,1 3,1 5,0 9,0 3,0 7,-1 11,-2 4,-2 7,-3 11,-7 4,-3 10,-9 17,-17 8,-8 17,-19 22,-25 5,-6 6,-7 7,-8 0,-2 1,-4 1,-7 1,-3 0,-7 0,-10 0,-4 -1,-7 -2,-10 -1,-3 -3,-5 -5,-8 -2,-3 -6,-6 -9,-8 -3,-2 -6,-3 -9,-4 -3,-1 -6,-2 -10,-2 -3,0 -7,0 -10,1 -3,0 -6,0 -8,1 -3,1 -5,2 -9,4 -3,2 -8,6 -12,10 -5,5 -9,9 -13,12 -3,4 -5,6 -6,7 -1,1 -2,2 0,3zm25 84c-2,0 -6,0 -9,-1 -3,0 -5,0 -7,-1 -2,-1 -3,-2 -4,-3 -1,0 -1,-1 -1,0 -1,0 -2,0 -6,3 -3,4 -10,10 -13,14 -4,4 -5,4 -7,5 -1,1 -3,1 -6,1 -2,0 -4,0 -6,-1 -2,0 -4,-1 -6,-2 -1,-1 -3,-2 -4,-4 -1,-1 -2,-3 -3,-5 -1,-2 -1,-4 -1,-6 0,-2 1,-5 3,-8 1,-2 4,-5 11,-12 7,-7 19,-17 26,-23 7,-6 8,-7 10,-8 1,0 3,-1 5,-1 1,0 3,1 5,2 2,1 4,3 6,5 2,1 3,2 5,2 1,1 3,1 5,0 1,-1 4,-2 5,-3 2,-2 3,-3 3,-4 1,-1 2,-2 1,-3 0,-2 -1,-3 -3,-5 -1,-2 -4,-5 -7,-7 -4,-1 -7,-3 -9,-4 -3,-1 -6,-1 -9,-2 -2,0 -5,0 -8,1 -3,0 -8,1 -11,2 -4,1 -7,3 -11,6 -5,4 -10,10 -17,18 -8,8 -17,19 -23,25 -5,6 -5,6 -6,8 -1,1 -1,4 -2,7 0,3 0,7 1,10 0,4 1,7 2,9 1,3 2,6 5,9 2,3 6,5 9,8 3,2 5,3 8,4 3,1 7,1 10,1 4,0 8,0 11,0 3,0 5,-1 8,-1 2,-1 5,-2 8,-4 4,-3 9,-7 13,-11 5,-4 9,-9 12,-12 4,-3 6,-5 7,-6 1,-2 1,-3 0,-3z"/>
  <path class="fil0 str1" d="M3345 -511c-2,1 -5,3 -6,8 -2,5 -2,13 -2,22 0,9 1,20 2,26 1,7 3,8 4,11 1,3 2,6 2,10 0,4 0,9 -2,15 -1,6 -3,13 -5,18 -3,5 -4,7 -6,10 -1,2 -1,5 -1,7 1,2 1,4 3,5 1,1 3,2 4,1 2,0 3,0 5,-2 2,-2 4,-5 6,-10 3,-6 5,-13 7,-19 2,-5 3,-8 3,-12 1,-3 0,-7 0,-10 0,-4 -1,-7 -1,-9 0,-2 1,-4 1,-4 0,0 1,0 1,2 1,2 1,5 2,9 1,4 2,10 3,15 0,6 0,11 0,15 0,4 0,8 1,10 0,2 1,2 2,3 1,0 3,1 5,1 1,-1 2,-2 4,-3 1,-2 2,-4 2,-7 1,-4 2,-8 1,-13 0,-6 0,-14 -2,-19 -1,-6 -3,-9 -5,-11 -1,-3 -2,-5 -3,-8 -1,-2 -1,-5 -1,-13 0,-7 0,-19 0,-25 1,-6 1,-7 2,-7 1,0 3,0 6,1 3,0 8,0 12,0 4,0 8,-1 11,-2 3,-1 5,-3 8,-4 3,-2 5,-3 7,-4 1,-1 2,-3 2,-5 0,-2 -1,-5 -2,-6 -1,-2 -3,-2 -5,-2 -2,0 -5,1 -8,2 -3,1 -6,2 -9,3 -4,1 -7,2 -10,3 -3,0 -4,1 -6,1 -1,0 -2,0 -4,0 -2,0 -4,-1 -6,-2 -1,-1 -2,-1 -4,-2 -1,-1 -3,-1 -6,-1 -2,-1 -5,-1 -7,0 -2,0 -3,0 -5,2zm9 -8c-9,0 -17,-7 -17,-16 0,-9 8,-17 17,-17 9,0 16,8 16,17 0,9 -7,16 -16,16zm29 -14l71 0 0 -8 9 0 0 8 74 0 0 9 -154 0 0 -9zm3 97l150 0 0 8 -67 0 0 8 34 38 -6 5 -28 -31 0 40 -8 0 0 -40 -28 31 -6 -5 34 -38 0 -8 -75 0 0 -8zm136 -84l0 80m-123 0l0 -52m11 11c7,-1 13,-3 17,-4 5,-1 7,-1 9,-1 3,1 6,3 8,5 3,3 5,5 7,7 3,3 5,5 7,5 1,1 2,1 4,-2 2,-2 6,-6 8,-9 2,-3 4,-5 6,-5 2,0 4,1 6,2 2,2 5,5 6,7 2,1 3,2 5,1 1,-2 4,-5 7,-9 3,-3 6,-7 10,-10"/>
  <path class="fil0 str1" d="M-36 -332c5,6 11,18 16,26 5,9 9,14 12,17 2,3 4,3 6,3 1,-1 3,-2 4,-4 1,-3 2,-7 3,-12 0,-6 0,-14 0,-18 -1,-5 -2,-6 -4,-7 -1,-1 -3,-3 -5,-4 -2,-1 -4,-2 -5,-3 -1,-1 -1,-2 1,-3 1,-1 3,-2 10,-2 7,-1 19,-1 26,0 6,0 8,0 9,0 1,1 2,2 2,3 0,2 0,4 0,11 0,8 0,21 0,28 0,6 0,7 1,8 1,0 3,1 4,1 2,0 3,0 5,-1 2,0 3,-1 8,-9 5,-7 13,-22 17,-29 5,-8 6,-9 7,-9 1,-1 2,-1 8,-1 6,0 16,0 22,0 6,1 7,1 8,2 1,1 2,2 2,3 1,2 0,3 0,5 -1,2 -3,5 -8,12 -6,7 -14,19 -19,25 -5,6 -6,8 -6,9 0,2 0,3 1,5 1,1 2,4 7,9 5,6 14,15 18,20 5,5 5,6 5,7 0,2 0,3 -1,5 0,1 -1,3 -9,3 -7,1 -20,1 -27,0 -7,0 -7,0 -9,-1 -2,-2 -4,-4 -7,-8 -3,-3 -6,-7 -8,-10 -2,-2 -3,-4 -5,-4 -1,-1 -3,-1 -5,-1 -1,1 -3,1 -4,3 -1,2 -2,4 -3,7 -1,2 -2,5 -3,7 -1,2 -2,4 -3,5 -1,1 -3,2 -8,2 -5,0 -15,0 -20,0 -6,-1 -8,-1 -11,-4 -4,-2 -10,-6 -17,-12 -6,-7 -14,-16 -21,-26 -7,-10 -14,-22 -19,-31 -5,-10 -7,-16 -9,-20 -1,-4 -1,-6 -1,-8 0,-1 1,-2 3,-3 1,-1 2,-1 5,-1 4,-1 8,-1 13,-1 4,0 9,0 14,6z"/>
  <path class="fil0 str1" d="M883 -455l167 0c5,0 9,4 9,9l0 169c0,5 -4,10 -9,10l-44 0 0 -72 23 0 4 -31 -27 0 0 -28 28 0 0 -28c0,-2 -2,-4 -5,-4l-28 0 -7 1 -5 1 -5 3 -4 3 -3 4 -3 6 -3 6 -1 6 0 30 -25 0 0 31 25 0 0 72 -88 0c-5,0 -9,-5 -9,-10l0 -167c0,-6 4,-11 10,-11z"/>
  <path class="fil0 str1" d="M364 -392l143 0c12,0 22,10 22,22l0 144c0,12 -10,22 -22,22l-143 0c-12,0 -22,-10 -22,-22l0 -144c0,-12 10,-22 22,-22zm0 78l17 0 0 25c0,2 0,3 0,4 0,26 24,48 55,48 29,0 53,-20 55,-44l0 0 0 0c0,-1 0,-3 0,-4 0,-1 0,-2 0,-3l0 -26 18 0 0 86 -145 0 0 -86zm113 -55l27 0c2,0 4,2 4,4l0 28c0,2 -2,4 -4,4l-27 0c-3,0 -4,-2 -4,-4l0 -28c0,-2 1,-4 4,-4zm-41 107c-20,0 -36,-16 -36,-36 0,-20 16,-36 36,-36 20,0 36,16 36,36 0,20 -16,36 -36,36z"/>
  <polyline class="fil0 str3" points="-1160,3364 -1230,3364 -1230,3162 -597,3162 -597,3364 -665,3364 "/>
  <path class="fil1" d="M-1138 3355l39 -104 6 0 42 106 3 2 9 3 0 5 -42 0 0 -6 5 -1 8 -2 0 -4 -11 -26 -35 0 -12 24 2 4 7 3 4 1 0 6 -36 0 0 -5 6 -2 5 -4zm41 -77l-15 40 30 0 -14 -39 -1 -1z"/>
  <path class="fil1" d="M-950 3285l5 0 3 -28c-8,-3 -17,-7 -26,-7 -16,-2 -28,2 -36,17 -18,32 32,49 42,57l8 9c3,7 -3,21 -9,25 -5,2 -18,1 -24,0 -8,-11 -6,-12 -12,-27l-5 0 -2 28c7,8 12,10 26,10 16,0 27,-1 37,-15 9,-11 9,-28 1,-36 -3,-4 -43,-26 -43,-26 -3,-3 -8,-12 -7,-16 0,-5 6,-15 16,-16 3,-1 15,0 17,2 6,3 7,17 9,23z"/>
  <polygon class="fil1" points="-899,3253 -899,3287 -894,3287 -885,3262 -861,3262 -861,3357 -874,3362 -874,3368 -831,3367 -831,3362 -844,3355 -844,3262 -822,3262 -812,3286 -807,3286 -807,3254 "/>
  <polygon class="fil1" points="-766,3261 -731,3317 -731,3356 -736,3359 -744,3362 -744,3367 -702,3367 -702,3362 -710,3360 -716,3356 -716,3316 -683,3261 -672,3261 -672,3252 -707,3252 -707,3259 -698,3259 -697,3267 -719,3306 -744,3264 -744,3261 -733,3261 -733,3253 -775,3252 -775,3260 "/>
  <path class="fil2" d="M-1147 3434l0 -1c1,0 2,-1 3,-1l0 -25c0,0 -1,-1 -2,-1 0,0 -1,0 -1,0l0 -2 4 0c1,0 1,0 2,0 0,0 1,0 2,0 0,0 1,0 2,0 0,0 1,0 1,0 5,0 9,1 11,4 3,3 4,6 4,11 0,2 0,4 -1,6 0,2 -1,4 -3,5 -1,2 -3,3 -5,4 -2,0 -4,1 -7,1 0,0 0,0 -1,0 -1,0 -1,0 -2,0 0,-1 -1,-1 -1,-1 -1,0 -2,0 -2,0l-4 0zm11 -28c-1,0 -2,0 -2,0 -1,0 -2,0 -2,1l0 25c0,0 0,0 1,0 0,0 1,0 1,0 0,1 1,1 1,1 1,0 1,0 1,0 2,0 4,-1 5,-2 1,0 2,-1 3,-3 1,-1 2,-2 2,-4 1,-1 1,-3 1,-5 0,-1 0,-3 -1,-4 0,-2 -1,-3 -2,-4 -1,-2 -2,-3 -3,-3 -2,-1 -3,-2 -5,-2z"/>
  <path id="1" class="fil2" d="M-1095 3434l-11 0 0 -1c1,0 2,-1 3,-1l0 -25c0,0 -1,0 -2,-1 0,0 -1,0 -1,0l0 -2 11 0 0 2c-1,0 -1,0 -2,0 -1,1 -1,1 -2,1l0 25c1,0 1,0 2,1 1,0 1,0 2,0l0 1z"/>
  <path id="2" class="fil2" d="M-1057 3432c-1,1 -2,1 -2,1 -1,1 -2,1 -3,1 0,0 -1,0 -2,1 -1,0 -2,0 -2,0 -2,0 -4,0 -6,-1 -2,-1 -4,-2 -5,-3 -1,-1 -2,-3 -3,-5 -1,-2 -1,-4 -1,-7 0,-2 1,-5 1,-7 1,-2 2,-3 4,-5 1,-1 2,-2 4,-2 2,-1 4,-1 5,-1 2,0 4,0 5,0 1,1 2,1 3,1 0,1 0,1 0,2 0,1 0,1 0,2 0,1 0,1 0,2 0,1 0,1 0,2l-1 0 -3 -6c0,-1 0,-1 -1,-1 -1,0 -2,0 -2,0 -2,0 -3,0 -4,1 -2,0 -3,1 -4,2 0,1 -1,3 -2,5 0,1 -1,3 -1,5 0,2 1,4 1,6 1,1 1,3 2,4 1,1 3,2 4,3 1,0 3,1 4,1 1,0 1,0 2,-1 0,0 1,0 1,0 1,0 1,0 1,0 1,-1 1,-1 1,-1l0 -8c-1,-1 -1,-1 -2,-1 -1,0 -1,0 -2,0l0 -2 10 0 0 2c0,0 0,0 -1,0 0,0 -1,0 -1,1l0 9z"/>
  <path id="3" class="fil2" d="M-1031 3434l-11 0 0 -1c1,0 2,-1 4,-1l0 -25c-1,0 -1,0 -2,-1 -1,0 -1,0 -2,0l0 -2 11 0 0 2c0,0 -1,0 -2,0 0,1 -1,1 -1,1l0 25c0,0 1,0 1,1 1,0 2,0 2,0l0 1z"/>
  <path id="4" class="fil2" d="M-1000 3434l-11 0 0 -1c0,0 1,0 1,0 1,-1 2,-1 2,-1l0 -25 -6 0 -2 6 -1 0c0,-1 0,-1 -1,-2 0,-1 0,-2 0,-2 0,-1 0,-2 0,-3 0,0 0,-1 0,-2l25 0c0,1 0,2 0,2 0,1 0,2 0,3 0,0 0,1 -1,2 0,1 0,1 0,2l-1 0 -2 -6 -6 0 0 25c0,0 1,0 2,1 0,0 1,0 1,0l0 1z"/>
  <path id="5" class="fil2" d="M-974 3434l-9 0 0 -1c1,0 2,-1 3,-1l11 -28 1 0 11 28c0,0 1,0 1,0 1,1 1,1 2,1l0 1 -11 0 0 -1c1,0 1,0 2,0 0,-1 1,-1 1,-1l-2 -8 -10 0 -3 8c1,0 2,1 3,1l0 1zm0 -12l9 0 -3 -9 -1 -4 0 0 -1 4 -4 9z"/>
  <path id="6" class="fil2" d="M-943 3404l11 0 0 2c0,0 -1,0 -2,0 -1,1 -1,1 -2,1l0 25 10 0 2 -7 1 0c1,1 1,2 1,2 0,1 0,2 0,3 0,1 0,1 0,2 0,1 0,2 0,2l-21 0 0 -1c0,0 1,0 1,-1 1,0 2,0 2,0l0 -25c-1,0 -1,0 -2,-1 0,0 -1,0 -1,0l0 -2z"/>
  <path id="7" class="fil2" d="M-882 3434l-9 0 0 -1c1,0 2,-1 3,-1l10 -28 2 0 10 28c1,0 1,0 2,0 0,1 1,1 1,1l0 1 -10 0 0 -1c0,0 1,0 1,0 1,-1 1,-1 2,-1l-3 -8 -10 0 -3 8c2,0 3,1 4,1l0 1zm0 -12l8 0 -3 -9 -1 -4 0 0 -1 4 -3 9z"/>
  <path id="8" class="fil2" d="M-827 3432c-1,1 -1,1 -2,1 -1,1 -2,1 -2,1 -1,0 -2,0 -3,1 -1,0 -1,0 -2,0 -2,0 -4,0 -6,-1 -2,-1 -4,-2 -5,-3 -1,-1 -2,-3 -3,-5 0,-2 -1,-4 -1,-7 0,-2 1,-5 1,-7 1,-2 2,-3 4,-5 1,-1 2,-2 4,-2 2,-1 4,-1 5,-1 2,0 4,0 5,0 1,1 3,1 3,1 0,1 0,1 0,2 0,1 0,1 0,2 0,1 0,1 0,2 0,1 0,1 0,2l-1 0 -2 -6c-1,-1 -1,-1 -2,-1 -1,0 -1,0 -2,0 -2,0 -3,0 -4,1 -1,0 -3,1 -3,2 -1,1 -2,3 -3,5 0,1 -1,3 -1,5 0,2 1,4 1,6 1,1 2,3 3,4 0,1 2,2 3,3 1,0 3,1 4,1 1,0 1,0 2,-1 0,0 1,0 1,0 1,0 1,0 1,0 1,-1 1,-1 1,-1l0 -8c-1,-1 -1,-1 -2,-1 -1,0 -1,0 -2,0l0 -2 10 0 0 2c0,0 0,0 -1,0 0,0 -1,0 -1,1l0 9z"/>
  <path id="9" class="fil2" d="M-792 3404c0,2 -1,3 -1,4 0,1 0,2 0,3l-1 0 -2 -4 -9 0 0 11 7 0 2 -3 1 0c0,3 0,6 0,8l-1 0 -2 -3 -7 0 0 12 10 0 2 -5 1 0c0,1 0,2 0,4 0,1 0,2 0,3l-20 0 0 -1c1,0 2,-1 3,-1l0 -25c-1,0 -1,0 -2,-1 0,0 -1,0 -1,0l0 -2 20 0z"/>
  <path id="10" class="fil2" d="M-758 3404l9 0 0 2c-1,1 -2,1 -4,1l0 28 -2 0 -15 -24 -2 -3 0 0 0 3 0 21c1,0 3,0 4,1l0 1 -10 0 0 -1c1,0 1,0 2,-1 1,0 1,0 2,0l0 -25c-1,0 -1,0 -2,-1 0,0 -1,0 -1,0l0 -2 7 0 13 21 2 3 0 0 0 -3 0 -18c-1,0 -1,0 -2,0 0,-1 -1,-1 -1,-1l0 -2z"/>
  <path id="11" class="fil2" d="M-714 3427l1 0c0,0 0,1 0,3 0,1 0,2 0,3 0,0 -1,1 -1,1 -1,0 -2,0 -2,0 -1,1 -2,1 -2,1 -1,0 -2,0 -2,0 -3,0 -5,0 -7,-1 -2,-1 -3,-2 -4,-3 -2,-1 -3,-3 -3,-5 -1,-2 -1,-4 -1,-7 0,-2 0,-5 1,-7 1,-2 2,-3 3,-4 1,-2 3,-3 4,-3 2,-1 4,-1 6,-1 2,0 3,0 4,0 2,1 3,1 4,1 0,1 0,1 0,2 0,1 0,1 0,2 0,1 0,1 -1,2 0,1 0,1 0,2l-1 0 -2 -6c0,-1 -1,-1 -2,-1 0,0 -1,0 -2,0 -1,0 -2,0 -4,1 -1,0 -2,1 -3,2 -1,1 -2,3 -2,5 -1,1 -1,3 -1,5 0,2 0,4 1,6 0,2 1,3 2,4 1,1 2,2 3,3 2,0 3,1 5,1 1,0 2,0 2,-1 1,0 1,0 2,0l2 -5z"/>
  <path id="12" class="fil2" d="M-682 3404l9 0 0 2c-1,0 -2,1 -3,1l-8 15 0 10c1,0 2,1 3,1l0 1 -11 0 0 -1c1,0 3,-1 4,-1l0 -10 -9 -15c0,0 -1,0 -1,-1 -1,0 -2,0 -2,0l0 -2 11 0 0 2c0,0 -1,0 -1,0 -1,0 -1,1 -2,1l7 12 6 -12c0,0 -1,-1 -2,-1 0,0 -1,0 -1,0l0 -2z"/>
  <circle class="fil1" cx="-1168" cy="3419" r="7"/>
  <circle class="fil1" cx="-658" cy="3419" r="7"/>
  <path class="fil3" d="M134 208l-33 0 0 -5c3,-1 7,-2 11,-3l38 -101 5 0 38 101 12 3 0 5 -40 0 0 -5 13 -3 -10 -28 -37 0 -10 28c5,0 9,2 13,3l0 5zm0 -44l31 0c-7,-20 -10,-25 -15,-45l0 0c-5,18 -9,27 -16,45zm118 33c9,9 37,5 37,-15 0,-24 -51,-20 -51,-55 0,-34 45,-30 61,-23l-3 27 -4 0 -6 -21c-9,-4 -34,-7 -34,14 0,25 51,22 51,55 0,38 -52,34 -65,23l4 -27 4 0 6 22zm152 11l-43 0 0 -5 14 -3 0 -91 -23 0 -8 22 -4 0 -2 -30 89 0 -2 30 -4 0 -8 -22 -23 0 0 91 14 3 0 5zm115 -107l33 0 0 5c-4,2 -8,3 -12,3l-28 53 0 38c4,0 8,1 11,3l0 5 -38 0 0 -5c3,-1 7,-3 12,-3l0 -37 -31 -54 -12 -3 0 -5 40 0 0 5 -11 3 25 45 23 -45 -12 -3 0 -5zm-428 170l0 -2 4 0 0 -24 -4 0 0 -2 11 0c19,-1 19,18 13,24 -6,6 -13,4 -19,4l-5 0zm12 -26l-4 0 0 24 9 -1c7,-4 7,-18 0,-22 -1,-1 -3,-1 -5,-1zm40 26l-11 0 0 -2 3 0 0 -24 -3 0 0 -2 11 0 0 2 -3 0 0 24 3 0 0 2zm38 -2c-8,4 -24,4 -24,-12 0,-15 15,-16 23,-13l0 7 -3 0c0,-5 1,-6 -5,-6 -12,0 -12,15 -7,21 3,3 11,3 12,1l0 -7 -4 0 0 -2 11 0 0 2 -3 0 0 9zm27 2l-12 0 0 -2 4 0 0 -24 -4 0 0 -2 12 0 0 2 -4 0 0 24 4 0 0 2zm31 0l-12 0 0 -2 4 0 0 -24 -7 0 -1 1 0 5 -3 0 0 -8 26 0 0 8 -3 0 0 -5 -1 -1 -7 0 0 24 4 0 0 2zm23 0l-10 0 0 -2 3 0 11 -26 4 0 9 26 3 0 0 2 -11 0 0 -2 3 0 -2 -7 -11 0 -2 7 3 0 0 2zm0 -12l9 0 -4 -13 0 0 -5 13zm30 -14l0 -2 13 0 0 2 -5 0 0 24 11 0 1 -1 0 -6 3 0 0 9 -23 0 0 -2 4 0 0 -24 -4 0zm62 26l-10 0 0 -2 3 0 10 -26 4 0 10 26 3 0 0 2 -11 0 0 -2 3 0 -3 -7 -10 0 -3 7 4 0 0 2zm0 -12l9 0 -4 -13 -1 0 -4 13zm53 10c-8,4 -24,4 -24,-12 0,-15 15,-16 23,-13l0 7 -3 0c0,-5 1,-6 -5,-6 -12,0 -12,15 -7,21 3,3 11,3 12,1l0 -7 -4 0 0 -2 11 0 0 2 -3 0 0 9zm36 -26l0 7 -3 0c0,-3 0,-3 -1,-5l-9 0 0 11 6 0 1 -1 0 -2 2 0 0 7 -2 0 -1 -2 -6 0 0 11 10 0 1 -1 0 -4 2 0 0 7 -21 0 0 -2 3 0 0 -24 -3 0 0 -2 21 0zm33 0l10 0 0 2 -4 0 0 26 -2 0 -16 -21 -2 -3 0 0 0 22 4 0 0 2 -10 0 0 -2 4 0 0 -24 -4 0 0 -2 8 0 16 22 0 0 0 -20 -4 0 0 -2zm43 21l2 0 0 6c-5,3 -22,4 -22,-13 0,-14 13,-17 22,-13l0 7 -2 0c0,-5 0,-6 -5,-6 -12,0 -13,15 -8,21 4,3 12,4 13,1l0 -3zm32 -21l10 0 0 2 -4 0 -8 14 0 10 4 0 0 2 -12 0 0 -2 4 0 0 -10 -9 -14 -4 0 0 -2 12 0 0 2 -3 0 7 12 6 -12 -3 0 0 -2zm-479 19c-3,0 -6,-2 -6,-5 0,-4 3,-6 6,-6 3,0 6,2 6,6 0,3 -3,5 -6,5zm502 0c-3,0 -6,-2 -6,-5 0,-4 3,-6 6,-6 3,0 6,2 6,6 0,3 -3,5 -6,5zm-548 -247l593 0 0 187 -55 0 0 7 63 0 0 -201 -609 0 0 201 62 0 0 -7 -54 0 0 -187z"/>
 </g>
</svg>
