<?xml version="1.0" encoding="UTF-8" standalone="no"?>
<!-- Created with Inkscape (http://www.inkscape.org/) -->

<svg
   xmlns:dc="http://purl.org/dc/elements/1.1/"
   xmlns:cc="http://creativecommons.org/ns#"
   xmlns:rdf="http://www.w3.org/1999/02/22-rdf-syntax-ns#"
   xmlns:svg="http://www.w3.org/2000/svg"
   xmlns="http://www.w3.org/2000/svg"
   xmlns:sodipodi="http://sodipodi.sourceforge.net/DTD/sodipodi-0.dtd"
   xmlns:inkscape="http://www.inkscape.org/namespaces/inkscape"
   width="32.617424mm"
   height="32.617447mm"
   viewBox="0 0 32.617425 32.617446"
   version="1.1"
   id="svg8"
   inkscape:version="0.92.1 r15371"
   sodipodi:docname="logo.svg">
  <defs
     id="defs2">
    <clipPath
       id="clipPath4501"
       clipPathUnits="userSpaceOnUse">
      <path
         inkscape:connector-curvature="0"
         id="path4499"
         d="M 0,61.263 H 243.272 V 0 H 0 Z" />
    </clipPath>
    <clipPath
       id="clipPath4617"
       clipPathUnits="userSpaceOnUse">
      <path
         inkscape:connector-curvature="0"
         id="path4615"
         d="M 0,409.603 H 409.602 V 0 H 0 Z" />
    </clipPath>
  </defs>
  <sodipodi:namedview
     id="base"
     pagecolor="#ffffff"
     bordercolor="#666666"
     borderopacity="1.0"
     inkscape:pageopacity="0.0"
     inkscape:pageshadow="2"
     inkscape:zoom="0.35"
     inkscape:cx="61.639223"
     inkscape:cy="61.63933"
     inkscape:document-units="mm"
     inkscape:current-layer="layer1"
     showgrid="false"
     fit-margin-top="0"
     fit-margin-left="0"
     fit-margin-right="0"
     fit-margin-bottom="0"
     inkscape:window-width="1366"
     inkscape:window-height="721"
     inkscape:window-x="-4"
     inkscape:window-y="-4"
     inkscape:window-maximized="1" />
  <metadata
     id="metadata5">
    <rdf:RDF>
      <cc:Work
         rdf:about="">
        <dc:format>image/svg+xml</dc:format>
        <dc:type
           rdf:resource="http://purl.org/dc/dcmitype/StillImage" />
        <dc:title></dc:title>
      </cc:Work>
    </rdf:RDF>
  </metadata>
  <g
     inkscape:label="Layer 1"
     inkscape:groupmode="layer"
     id="layer1"
     transform="translate(45.790854,-132.52462)">
    <g
       transform="matrix(0.07963205,0,0,-0.07963205,-45.790854,165.14209)"
       inkscape:label="Vector Smart Object"
       id="g4609"
       style="fill:#00aeef;fill-opacity:1">
      <g
         id="g4611"
         style="fill:#00aeef;fill-opacity:1">
        <g
           clip-path="url(#clipPath4617)"
           id="g4613"
           style="fill:#00aeef;fill-opacity:1">
          <g
             transform="translate(312.9497,110.7793)"
             id="g4619"
             style="fill:#00aeef;fill-opacity:1">
            <path
               inkscape:connector-curvature="0"
               id="path4621"
               style="fill:#00aeef;fill-opacity:1;fill-rule:nonzero;stroke:none"
               d="m 0,0 -16.398,-16.404 c -2.926,-2.92 -11.5,-4.75 -11.778,-4.75 -51.875,-0.45 -101.824,19.925 -138.524,56.625 -36.8,36.826 -57.198,86.954 -56.648,139 0,0.028 1.875,8.352 4.797,11.25 l 16.403,16.403 c 6,6.023 17.523,8.75 25.597,6.051 l 3.453,-1.153 c 8.051,-2.699 16.5,-11.597 18.723,-19.801 l 8.25,-30.273 c 2.227,-8.227 -0.773,-19.926 -6.773,-25.926 l -10.95,-10.949 c 10.75,-39.802 41.973,-71.022 81.774,-81.802 l 10.949,10.95 c 6.023,6.029 17.727,9.029 25.926,6.8 L -14.926,47.75 C -6.723,45.5 2.176,37.096 4.875,29.051 l 1.152,-3.5 C 8.703,17.5 6,5.971 0,0 m -108.148,298.823 c -113.102,0 -204.802,-91.699 -204.802,-204.801 0,-113.096 91.7,-204.801 204.802,-204.801 113.097,0 204.8,91.705 204.8,204.801 0,113.102 -91.703,204.801 -204.8,204.801" />
          </g>
        </g>
      </g>
    </g>
  </g>
</svg>
