<?xml version="1.0" encoding="UTF-8" standalone="no"?>
<!-- Created with Inkscape (http://www.inkscape.org/) -->

<svg
   xmlns:dc="http://purl.org/dc/elements/1.1/"
   xmlns:cc="http://creativecommons.org/ns#"
   xmlns:rdf="http://www.w3.org/1999/02/22-rdf-syntax-ns#"
   xmlns:svg="http://www.w3.org/2000/svg"
   xmlns="http://www.w3.org/2000/svg"
   xmlns:sodipodi="http://sodipodi.sourceforge.net/DTD/sodipodi-0.dtd"
   xmlns:inkscape="http://www.inkscape.org/namespaces/inkscape"
   version="1.1"
   id="svg2"
   xml:space="preserve"
   width="546.13599"
   height="546.13733"
   viewBox="0 0 546.13599 546.13733"
   sodipodi:docname="phone2.svg"
   inkscape:version="0.92.1 r15371"><metadata
     id="metadata8"><rdf:RDF><cc:Work
         rdf:about=""><dc:format>image/svg+xml</dc:format><dc:type
           rdf:resource="http://purl.org/dc/dcmitype/StillImage" /><dc:title></dc:title></cc:Work></rdf:RDF></metadata><defs
     id="defs6"><clipPath
       clipPathUnits="userSpaceOnUse"
       id="clipPath18"><path
         d="M 0,409.603 H 409.602 V 0 H 0 Z"
         id="path16"
         inkscape:connector-curvature="0" /></clipPath></defs><sodipodi:namedview
     pagecolor="#ffffff"
     bordercolor="#666666"
     borderopacity="1"
     objecttolerance="10"
     gridtolerance="10"
     guidetolerance="10"
     inkscape:pageopacity="0"
     inkscape:pageshadow="2"
     inkscape:window-width="741"
     inkscape:window-height="480"
     id="namedview4"
     showgrid="false"
     inkscape:zoom="0.43212574"
     inkscape:cx="273.06799"
     inkscape:cy="273.06866"
     inkscape:window-x="0"
     inkscape:window-y="0"
     inkscape:window-maximized="0"
     inkscape:current-layer="g10" /><g
     id="g10"
     inkscape:groupmode="layer"
     inkscape:label="Vector Smart Object3"
     transform="matrix(1.3333333,0,0,-1.3333333,0,546.13733)"><g
       id="g12"
       style="fill:#00aeef;fill-opacity:1"><g
         id="g14"
         clip-path="url(#clipPath18)"
         style="fill:#00aeef;fill-opacity:1"><g
           id="g20"
           transform="translate(312.9497,110.7793)"
           style="fill:#00aeef;fill-opacity:1"><path
             d="m 0,0 -16.398,-16.404 c -2.926,-2.92 -11.5,-4.75 -11.778,-4.75 -51.875,-0.45 -101.824,19.925 -138.524,56.625 -36.8,36.826 -57.198,86.954 -56.648,139 0,0.028 1.875,8.352 4.797,11.25 l 16.403,16.403 c 6,6.023 17.523,8.75 25.597,6.051 l 3.453,-1.153 c 8.051,-2.699 16.5,-11.597 18.723,-19.801 l 8.25,-30.273 c 2.227,-8.227 -0.773,-19.926 -6.773,-25.926 l -10.95,-10.949 c 10.75,-39.802 41.973,-71.022 81.774,-81.802 l 10.949,10.95 c 6.023,6.029 17.727,9.029 25.926,6.8 L -14.926,47.75 C -6.723,45.5 2.176,37.096 4.875,29.051 l 1.152,-3.5 C 8.703,17.5 6,5.971 0,0 m -108.148,298.823 c -113.102,0 -204.802,-91.699 -204.802,-204.801 0,-113.096 91.7,-204.801 204.802,-204.801 113.097,0 204.8,91.705 204.8,204.801 0,113.102 -91.703,204.801 -204.8,204.801"
             style="fill:#00aeef;fill-opacity:1;fill-rule:nonzero;stroke:none"
             id="path22"
             inkscape:connector-curvature="0" /></g></g></g></g></svg>